<svg xmlns="http://www.w3.org/2000/svg" width="1024" height="1024" xmlns:v="https://vecta.io/nano"><path d="M369.62 652.5c-1.41 1.93-2.61 2-33.29 2-17.51 0-40.83-.22-51.83-.5-19.96-.5-20-.5-20.33-2.81-.18-1.27.3-3.29 1.06-4.5.75-1.2 2.89-5.79 4.75-10.19 1.85-4.4 3.97-8.71 4.7-9.58.72-.87 1.32-2.35 1.32-3.29s1.31-4.51 2.9-7.92c1.6-3.42 4.56-10.22 6.59-15.11 2.02-4.9 4.06-9.62 4.53-10.5s2.28-4.98 4.03-9.1 5.83-12.9 9.08-19.5 5.9-12.75 5.89-13.66c-.02-1.69 2.29-7.11 10.16-23.84 5.42-11.53 7.07-15.19 7.42-16.5.57-2.09 6.24-15.26 8.37-19.44 1.22-2.4 2.8-5.98 3.51-7.96s2.85-6.98 4.77-11.1c1.91-4.12 4.06-9.08 4.78-11 .71-1.92 2.61-6.2 4.22-9.5s4.51-9.83 6.44-14.5 5.04-11.75 6.91-15.72 3.4-7.63 3.4-8.12.93-2.08 2.07-3.53c1.14-1.44 1.82-2.63 1.51-2.63-.95 0 3.9-12.01 8.79-21.74 2.55-5.08 5.75-12.18 7.1-15.79 1.36-3.6 3.16-7.53 4-8.73s1.53-2.93 1.53-3.84.67-2.22 1.5-2.9 1.5-1.91 1.5-2.72c0-1.52.48-2.71 6.97-17.28l5.41-12.25c3.59-8.3 5.07-11.6 8.76-19.48 2.12-4.53 3.86-8.54 3.86-8.93 0-.38 1.54-3.87 3.41-7.77 1.88-3.89 3.93-8.74 4.56-10.77.64-2.04 2.3-5.39 3.7-7.45s3.35-6.25 4.33-9.3c.99-3.05 3.34-8.93 5.23-13.05l4.71-10.72c.7-1.77 1.9-3.73 2.67-4.37.76-.63 1.39-1.94 1.39-2.91 0-2.03 3.68-10.68 4.85-11.41.44-.27 1.44.28 2.22 1.22 1.79 2.15 5.93 10.53 5.93 12.01 0 .61 1.35 3.24 3 5.84s3 5.08 3 5.51c0 .79 4.36 10.81 6.2 14.25 4.24 7.92 8.03 15.74 21.08 43.58.65 1.38 2.13 4.08 3.3 6s2.48 4.62 2.9 6c.43 1.38 7.48 16.23 15.67 33l19.91 41.25c.7 1.51 1.65 2.75 2.11 2.75s.83.56.83 1.24c0 1.43 4.55 11.14 13.11 28.02 4.17 8.2 5.58 11.89 4.68 12.18-5.51 1.74-9.04 2.63-13.79 3.48-3.03.53-7.75 1.51-10.5 2.16-2.75.66-6.58 1.38-8.5 1.59l-8.64.95-5.13.56-8.09-16.52c-4.45-9.08-8.44-16.73-8.87-16.99-1.43-.89-5.03 2.92-7.66 8.12-2.04 4.02-2.61 6.61-2.61 11.86 0 7.61 2.64 18.35 4.51 18.35.68 0 3.22 1.11 5.65 2.47 6.73 3.76 13.79 4.17 27.57 1.61 6.47-1.2 14.24-2.83 17.27-3.62s10.22-2.14 16-3.01 12.53-2 15-2.52 14.85-1.45 27.5-2.07c17.62-.86 25.92-.84 35.5.08 14.31 1.38 33.14 4.44 40.59 6.59 2.8.81 6 1.47 7.12 1.47s4.23.93 6.91 2.06c7.96 3.38 8.72 3.68 12.38 5 1.92.7 4.17 1.8 5 2.45s6 3.81 11.5 7.02c9.72 5.69 12.86 7.9 20.83 14.7 5.9 5.04 6.69 5.84 14.04 14.03 8.72 9.74 11.18 13.05 14.32 19.24 1.4 2.75 3.1 5.67 3.79 6.5 2.54 3.03 6.43 14.8 8.62 26.1l2.25 11.6-2.24 12.9c-1.47 8.44-3.2 14.8-4.99 18.4-5.23 10.51-8.63 16.48-10.37 18.24-.96.97-1.75 2.14-1.75 2.61 0 2.24-27.98 28.15-30.4 28.15-.64 0-1.74.69-9.78 6.16-5.74 3.91-18.83 9.84-21.7 9.84-1.54 0-3.62.89-4.6 1.98-.99 1.09-3.31 2.27-5.17 2.61-1.85.35-3.62 1.04-3.92 1.52-.3.49-2.43.88-4.74.87l-4.19-.02 2.47-1.9c1.36-1.05 2.81-1.69 3.23-1.44.41.26 1.51-.43 2.45-1.53.94-1.09 2.09-1.75 2.55-1.46.47.28.73.13.57-.34-.15-.47 2.2-3.4 5.23-6.5 3.03-3.11 6.34-7.37 7.37-9.47l3.17-6.35c.72-1.39 2.04-5.67 2.93-9.5 6.91-29.7-1.46-56.67-24.06-77.51-4.44-4.1-10.29-8.58-13-9.95-2.7-1.37-5.64-3.08-6.53-3.79-5.33-4.26-38.5-13.83-59.38-17.14-12.91-2.05-60.42-4.99-70-4.34-4.83.33-24.5-1.92-25.08-2.87-.3-.48-1.79-.87-3.31-.87s-4.98-1.12-7.69-2.5c-2.71-1.37-5.42-2.49-6.03-2.5-1.68 0-10.06-6.67-15.12-12.03-6.09-6.46-8.84-11.6-11.92-22.29-2.29-7.97-2.53-10.23-2.04-19.11.57-10.3 2.79-18.69 6.72-25.34 3.71-6.29 11.13-14 16.07-16.69 4.4-2.39 4.9-3.02 4.9-6.1 0-1.89-.4-3.44-.88-3.44-.49 0-2.1-2.59-3.58-5.75-1.49-3.16-4.25-8.54-6.15-11.96-2.99-5.39-3.72-6.1-5.54-5.43-2.55.94-11.18 16.78-10.52 19.3.25.96-.03 1.91-.63 2.11-.62.2.74 3.18 3.1 6.79 4.47 6.84 4.79 7.96 3.16 11.01-1.59 2.98-3.33 2.33-6.85-2.57-1.78-2.48-3.67-4.5-4.19-4.5-1.16 0-6.92 8.87-6.92 10.64 0 .69-1.58 3.94-3.5 7.22-4.6 7.86-4.49 10.63.73 18.24 3.61 5.26 4.23 6.92 4.25 11.28.01 2.82-.43 5.32-.98 5.55-.55.24-3.2-2.84-5.88-6.84-3.15-4.7-5.15-6.85-5.63-6.07-.57.91-.88.88-1.31-.16-.83-2.04-3.28 1.43-5.69 8.08-1.11 3.06-2.68 6.75-3.49 8.19-2.89 5.16-1.5 10.56 5.05 19.58 3.27 4.52 6.51 8.23 7.19 8.25 1.29.04 6.26-7.11 6.26-9.01 0-1.53 5.03-9.95 5.94-9.95 1.3 0 4.06 3.59 4.06 5.27 0 .89-.45 1.89-1 2.23s-1 1.97-1 3.62c0 1.74-.42 2.74-1 2.38-.55-.34-1 .32-1 1.46s-1.12 3.86-2.5 6.04c-3.7 5.87-3.32 9.97 1.53 16.54 2.22 3 4.43 5.46 4.92 5.46 2.28 0 7.05-5.32 7.05-7.87 0-3.53 2.6-7.13 5.15-7.13 1.11 0 4.51 2.21 7.54 4.91 5.46 4.87 16.52 11.09 19.71 11.09.92 0 4.32.9 7.57 1.99s9.68 2.28 14.3 2.63c5.99.46 8.4 1.03 8.4 1.98 0 .82-1.74 1.55-4.59 1.92-2.52.33-7.28 1.2-10.58 1.94l-14 3.05c-4.4.93-9.8 2.31-12 3.07s-6.44 1.85-9.43 2.41c-2.99.57-6.14 1.66-7 2.43s-2.92 1.62-4.57 1.89c-3.5.57-5.59 1.36-14.81 5.59-3.74 1.72-7.57 3.27-8.5 3.44s-3.43 1.06-5.56 1.98c-2.13.93-4.27 1.68-4.75 1.68s-.88.41-.88.91-2.59 1.69-5.75 2.66c-3.16.96-6.46 2.35-7.33 3.09s-1.96 1.34-2.42 1.34-1.55.6-2.42 1.33-4.06 2.37-7.08 3.63-6.62 3.07-8 4.03-3.62 2.09-5 2.52c-1.38.42-4.87 2.28-7.77 4.13S382.4 568 381.7 568c-.69 0-2.28.72-3.52 1.59-1.25.87-8.94 5.04-17.08 9.25-27.34 14.14-31.1 16.95-31.1 23.23 0 2.38 4.13 2.68 6 .43.68-.83 1.78-1.5 2.42-1.5.65 0 3.86-1.73 7.13-3.84 7.81-5.04 22.82-13.15 25.16-13.6 1.02-.2 4.62-2.2 8.02-4.46 3.39-2.25 6.99-4.22 7.99-4.37 1-.16 3.39-1.24 5.3-2.41 3.72-2.27 10.65-5.32 12.1-5.32.48 0 .88.85.88 1.9 0 2.71-5.67 16.27-7.21 17.25-.71.45-.94.83-.52.83.42.01-.15 1.82-1.27 4.02s-1.82 4-1.56 4c.46 0-3.72 10.12-8.25 20-1.14 2.47-3.72 8.55-5.74 13.5s-4.69 10.8-5.92 13c-1.24 2.2-2.52 5.12-2.84 6.5-.33 1.38-1.26 3.4-2.07 4.5zm367.04-258.75c-5.69 9.57-9.64 15.22-10.61 15.17-.85-.05-4.25-.7-7.55-1.44-26.36-5.93-43.32-7.78-72.5-7.89-26.2-.1-40.29.99-64.89 5l-15.38 2.51-2.85-3.3c-1.57-1.81-3.16-4.42-3.53-5.8s-2.18-5.24-4.01-8.58c-1.84-3.35-3.34-6.8-3.34-7.68s-.68-2.28-1.51-3.11c-.83-.82-3.98-6.82-7.01-13.32l-6.66-13.81c-.63-1.1-2.23-4.25-3.55-7-1.31-2.75-3.12-6.35-4.01-8-2.19-4.07-2.38-4.46-8.3-17-2.86-6.05-6.04-12.19-7.08-13.65-1.03-1.46-1.88-3.23-1.88-3.92 0-1.08-6.95-16.07-11.8-25.43-2.53-4.89-2.89-5.64-6.74-14l-8.07-17.11c-2.41-5.01-4.39-9.62-4.39-10.25s-.4-1.14-.89-1.14c-.76 0-2.03-3.3-2.2-5.75-.03-.41-.66-1.43-1.39-2.25-1.97-2.21-7.33-14.33-6.87-15.54.05-.12.08-.24.14-.35.5-.95 2.84-.95 36.57-.87H510l39.75-.09c3.38-.13 4.25.17 4.25 1.51 0 .93.67 2.43 1.5 3.34 1.46 1.62 10.41 18.13 14.62 27 8.17 17.19 11.19 23 11.98 23 .49 0 .9.52.9 1.15 0 1.16 3.79 9.82 6.72 15.35l8.14 15.5 3.45 6.5c6.13 11.49 12.78 25.75 12.25 26.27-.31.31-1.7-.04-3.08-.78-1.94-1.04-2.79-1.08-3.7-.17-.65.65-1.7 1.18-2.34 1.18-1.22 0-6.44-9.29-6.44-11.47 0-.71-.6-1.78-1.34-2.39-.73-.61-1.93-2.92-2.66-5.14s-1.93-4.53-2.66-5.14c-.74-.61-1.34-1.75-1.34-2.55 0-.79-1.12-2.92-2.5-4.72s-2.5-3.71-2.5-4.23c0-.53-.52-1.48-1.15-2.11-.86-.86-1.65-.51-3.17 1.43-3.84 4.89-11.68 18.65-11.68 20.51 0 2.18 5.47 13.36 6.99 14.31.58.35.83.98.57 1.41-.26.42.31 2.98 1.27 5.68 1.7 4.77 1.88 4.92 6.12 5.23 2.4.17 7.56-.36 11.46-1.18 3.9-.83 10.81-1.79 15.37-2.14 4.55-.35 9.27-.79 10.5-.98 30.53-4.59 104.7-4.02 141.47 1.1 3.82.53 4.25.87 4.25 3.33 0 1.51-.87 3.53-1.94 4.5s-2.23 3.06-2.58 4.64c-.35 1.59-1.06 3.15-1.58 3.47s-2.26 3.2-3.88 6.4c-1.61 3.19-3.51 6.44-4.23 7.21-.71.77-2.59 3.86-4.18 6.86-1.59 3.01-6.96 12.33-11.95 20.72zM631.29 655.5c-7.03.83-15.03 1.44-17.78 1.36-11.35-.33-28.06-1.86-30.84-2.82-1.63-.57-4.19-1.04-5.68-1.04-3.06 0-17.32-3.4-22.85-5.45-2-.74-5.89-1.92-8.64-2.62-4.35-1.1-13.29-5.01-21.5-9.4-3.15-1.69-7.01-3.6-14-6.93-3.02-1.44-9.21-4.59-13.75-7s-8.25-4.18-8.25-3.93c0 .26-1.24-.4-2.75-1.47-2.51-1.76-15.75-8.2-16.86-8.2-.26 0-3.27-1.31-6.68-2.9l-12.21-5.66c-10.81-4.97-28.23-10.91-35.25-12.02-4.47-.71-5.38-2.42-3.29-6.18.53-.96 2.64-5.79 4.69-10.74s4.43-10.03 5.29-11.3c1.55-2.28 18.01-11.2 20.67-11.2.76 0 1.39.91 1.39 2.03s.79 2.31 1.75 2.65 2.48 1.24 3.36 2c.89.76 2.6 1.57 3.8 1.8s3.7.97 5.57 1.65c4.22 1.53 5.19.83 10.18-7.39 3.97-6.53 5.05-10.74 2.75-10.74-2.2 0-1.67-1.43 1.34-3.65 4.74-3.5 7.81-3.43 18.18.37l13.44 4.93c2.13.78 6.72 2.76 10.21 4.39 3.48 1.63 6.73 2.96 7.21 2.96.47 0 3.75 1.17 7.27 2.6s7.09 2.76 7.92 2.94c.84.19 3.99 1.31 7.02 2.5 12.09 4.73 15.99 6.04 28 9.38l16.5 4.74c5.69 1.8 41.69 1.8 46.76.01 2.07-.73 3.58-1.63 3.35-2-.22-.37 1.4-.78 3.6-.91 2.2-.12 5.47-1.14 7.27-2.25 1.79-1.1 3.92-2.01 4.73-2.01.82 0 2.34-.95 3.38-2.1 1.05-1.16 3.17-2.76 4.71-3.56 2.57-1.32 12.11-14.5 12.21-16.84.04-1.23 3.5-.71 5.33.79.87.72 1.11 2.15.7 4.15-.82 3.93-.75 34.24.08 38.4.74 3.7 1.41 3.89 3.91 1.13 1.01-1.12 3.44-3 5.4-4.19 1.97-1.18 4.81-3.42 6.33-4.97 3.05-3.11 6.2-3.66 7.13-1.23.95 2.48.71 6.42-.39 6.42-.55 0-1 .62-1 1.38 0 2-14.54 13.62-17.04 13.62-.53 0-.96.48-.96 1.06s-.41.8-.92.49c-1.2-.74-4.27 2.33-3.53 3.53.31.51-.11.92-.95.92-.96 0-1.75 1.36-2.18 3.75-.37 2.06-1.45 7.46-2.39 12-.99 4.71-1.32 8.25-.77 8.25.52 0 .69.67.38 1.5-.71 1.84 2.47 2.04 5.68.35 4.1-2.16 15.55-9.84 16.18-10.84.81-1.33 4.5-1.3 4.5.03 0 2.65-6.24 11.49-10.95 15.51-7.19 6.13-15.38 11.45-17.65 11.45-1.05.01-3.25.81-4.9 1.8-7.06 4.23-16.54 6.64-34.21 8.7zm-5.08-92.97c-10.13 1.35-26.73 1.74-32.21.75-3.4-.62-6.71-3.88-8.05-7.93-.61-1.84-1.48-3.35-1.94-3.35s-2.1-3.26-3.64-7.25-3.09-7.47-3.44-7.75c-1.17-.91-10.93-21.02-10.93-22.5 0-2.4 3.99-2.71 19.63-1.55 20.58 1.54 31.94 3.35 34.29 5.47 1.85 1.68 7.08 11.37 7.08 13.12 0 .45.86 1.76 1.9 2.9 1.05 1.13 3.13 4.98 4.62 8.56 1.48 3.58 3.78 8.34 5.09 10.59 1.32 2.25 2.39 4.37 2.39 4.71 0 1.53-4.84 2.91-14.79 4.23zm-48.86 180.63c-2.06 2.29-5.66 2.38-7.48.19-1.84-2.22-2.6-37.13-.87-40.35 1.13-2.11 1.59-2.15 18.33-1.83 14.93.29 17.59.59 20.42 2.3 1.79 1.08 3.26 2.43 3.27 3 .01.56.9 2.15 1.98 3.53s1.97 3.17 1.98 3.99c.05 3.53-3.59 9.83-7.17 12.4-4.34 3.12-4.47 3.5-2.06 6.17 3.18 3.52 7.25 9.29 7.25 10.27 0 1.37-2.58 2.17-7.01 2.17-3.08 0-3.99-.44-4.55-2.18-.38-1.19-1.76-3.33-3.06-4.74-1.31-1.41-2.38-2.91-2.38-3.33 0-1.9-6.76-4.74-11.27-4.75-4.29 0-4.89.28-5.83 2.75-.57 1.51-.78 4.06-.47 5.66.4 1.97.05 3.51-1.08 4.75zm-119.59 1.01c-2.24 1.42-7.51.94-8.15-.75-.34-.87-.61-10.82-.61-22.1V700.8l17.3.35c15.19.31 17.65.59 20.25 2.32 1.62 1.09 3.26 1.88 3.64 1.77s1.62.98 2.75 2.41c2.25 2.86 2.93 11.69 1 12.89-.59.36-1.5 1.8-2.03 3.2-.53 1.39-1.23 2.28-1.55 1.96-.31-.32-1.76.52-3.21 1.86-1.94 1.8-2.37 2.82-1.64 3.84 5.56 7.81 6.99 10.35 6.69 11.85-.94 4.7-11.59-1.13-14.83-8.12-2.11-4.55-4.14-5.38-12.25-5.01-5.68.26-5.8.43-5.98 8.31-.06 2.77-.67 5.29-1.38 5.74zm63.04-4.92l-.3 5.25-4.09.3c-2.65.19-4.5-.21-5.29-1.15-1.57-1.9-1.91-40.26-.37-41.8.69-.69 6.79-.93 17.4-.69 18.31.4 20.46 1.06 24.73 7.57 2.33 3.56 2.43 5.4.7 13.22-1.27 5.75-6.13 7.8-21.58 9.07-8 .66-9.81.75-9.91 1.21-.03.13.09.29.23.5a3.16 3.16 0 0 1 .18.27c.34.55.16 1-.39 1s-1.14 2.36-1.31 5.25zm92.2-97.16c0 1.39 17.54.62 24-1.04 4.99-1.29 11.92-2.84 16.5-3.71 3.35-.63 6.44-3.85 6.48-6.74.01-1.04 1-5.83 2.19-10.64 2.04-8.2 2.07-8.86.5-10.44-1.92-1.91-4-1.64-15.17 1.97-3.85 1.24-10.83 2.58-15.5 2.98-9.17.77-12.47 2.18-13.51 5.75-.36 1.26-2.42 5.95-4.58 10.43-4.31 8.98-4.63 10.35-2.41 10.35.83 0 1.5.49 1.5 1.09zM283.56 743.58c-2.37 1.73-5.74 1.84-7.36.22-1.27-1.27-1.8-38.08-.59-41.22.83-2.16 7.73-2.08 11.49.14 1.59.94 2.9 2.08 2.9 2.53 0 .44 1.53 2.15 3.39 3.79 1.86 1.63 4.13 4.54 5.05 6.47.91 1.92 1.88 3.49 2.17 3.49.28 0 .2-.5-.17-1.1-.38-.61.52-.32 1.99.64 1.47.97 3.33 3.03 4.13 4.58s2.28 3.26 3.27 3.79c2.83 1.51 4.39-4.07 3.66-13.14-.34-4.24-.15-8.53.45-10.11.94-2.46 1.45-2.7 5.3-2.43l4.26.29.28 19.49c.32 22.65-.13 24.52-5.67 23.62-3.13-.51-10.11-5.88-10.11-7.78 0-.41-4.56-5.31-10.12-10.88-7.52-7.51-10.42-9.83-11.25-8.99-.71.71-1.13 5.58-1.13 13.15 0 10.75-.21 12.18-1.94 13.45zm461.87.44c-1.41.54-10.41.98-20.01.98h-17.46l.27-21.75.27-21.75H728c19.46 0 19.5.01 19.82 2.25.47 3.32-3.13 4.25-16.64 4.27-6.91 0-11.13.36-10.32.87 1 .64 1.05 1.05.18 1.59-1.4.86-1.06 7.7.42 8.75.57.41 5.63.75 11.23.75 5.76.01 10.46.46 10.82 1.03.34.55.33 1.9-.01 3-.58 1.81-1.53 1.99-10.64 1.99-11.73 0-13.37.9-13.12 7.25.09 2.19.38 4.21.66 4.48.27.27 5.83.42 12.35.34 6.52-.09 12.62.14 13.56.49 2.59 1 2.06 4.35-.88 5.46zM626.67 606.33c.36.37.93.66 1.25.65 2.14-.06 21.09-4.92 22.82-5.84 1.17-.63 3.08-1.14 4.25-1.14 2.59 0 10.29-3.41 11.74-5.2.58-.72 1.37-6.75 1.76-13.41.69-11.75.65-12.12-1.39-12.65-1.15-.31-2.31-.2-2.58.22-.26.43-3.07 2-6.25 3.5-3.17 1.49-7.52 3.62-9.66 4.74-2.13 1.11-5.7 2.19-7.93 2.41-5.07.48-8.39 3.5-9.71 8.82-.56 2.24-1.9 5.99-2.99 8.35-1.99 4.3-2.55 8.32-1.31 9.55zm68.67-78.9c2.84 2.51 5.93 4.56 6.87 4.57 1.97 0 4.57-2.58 8.49-8.42 1.51-2.24 3.77-5.35 5.02-6.91 4.46-5.53 2.56-8.43-12.04-18.33-1.75-1.19-4.59-3.56-6.32-5.28-2.89-2.88-3.28-3-4.75-1.52-1.02 1.01-1.61 1.16-1.61.41 0-2.25-3.19 1.36-8.6 9.75-2.91 4.51-5.43 8.99-5.59 9.95-.21 1.21 1.82 3.23 6.53 6.49 3.76 2.6 9.16 6.78 12 9.29zM582 640.35c6.92 1.05 14.91.59 16.44-.93 2.06-2.06 9.56-17.56 9.56-19.76 0-2.34-2.97-3.36-13.5-4.68l-14.34-1.86c-5.16-.72-5.42-.64-7.63 2.32-1.26 1.68-2.98 4.41-3.82 6.06s-2.69 4.35-4.12 6c-3.23 3.73-4.07 6.21-2.68 7.89.91 1.09 10.96 3.58 20.09 4.96zM431.37 743.14c-1.5 1.66-3.31 1.86-16.77 1.82-11.43-.03-15.77-.4-17.85-1.53l-2.75-1.49v-19.86c0-17.19.21-19.95 1.58-20.47.87-.34 9.66-.61 19.53-.61 15.7 0 18.03.21 18.58 1.64.35.9.17 2.36-.4 3.25-.84 1.32-3.21 1.64-13.41 1.77l-13.51.25c-1.38.11-3.43 4.97-3.06 7.24.7 4.17 2.54 4.85 13.19 4.85 7.9 0 10.54.35 11.5 1.5.99 1.2.99 1.8 0 3-.96 1.16-3.66 1.5-11.87 1.52-6.19 0-10.07.36-9.3.86 1.02.64.83.98-.77 1.39-1.88.5-2.04 1.03-1.43 4.89.37 2.39 1.06 4.6 1.54 4.91s6.42.38 13.2.14c11.07-.38 12.4-.25 13.01 1.33.4 1.05 0 2.49-1.01 3.6zm256.23.82c-4.42 2.01-14.36 2.54-24.56 1.3-5.96-.72-11.21-5.8-8.03-7.77.56-.34 5.51.09 11 .96 5.49.88 11.22 1.28 12.74.91 4.1-1.01 7.25-3.36 7.25-5.4 0-2.08-4.33-5.82-7.41-6.4-16.03-3.01-20.62-4.93-23.63-9.85-2.54-4.18-2.47-5.5.55-9.93 3.55-5.23 9.82-7.78 19.1-7.78 9.41 0 16.21 1.8 18.18 4.8 1.31 1.99 1.32 2.52.11 3.73s-1.97 1.2-5.4-.02c-5.05-1.79-18.55-1.97-20.68-.26-2.1 1.67-2.8 5.07-1.43 6.89.61.81 5.61 2.53 11.11 3.8 9.92 2.31 16.67 5.64 18.56 9.17 2.85 5.33-.64 12.74-7.46 15.85zm-426.79-2.13l-.31 2.67-17.73.27c-16.07.25-17.89.11-19.56-1.56-1.63-1.63-1.86-3.93-2.09-20.38-.22-16.18-.05-18.76 1.41-20.21 1.44-1.45 3.94-1.63 19.21-1.39 15 .23 17.69.51 18.58 1.91.77 1.22.62 2.06-.57 3.25-1.3 1.31-3.95 1.61-14.02 1.61-10.76 0-12.64.24-14.08 1.83-2.07 2.29-2.1 5.08-.09 7.95 1.44 2.06 2.32 2.22 12.53 2.22 10.46 0 11.01.1 11.82 2.25.54 1.44.44 2.51-.29 2.98-.61.41-6.11.75-12.21.75-10.62.02-11.13.12-12.15 2.34-1.14 2.51-.61 7.4 1.03 9.47.77.97 3.07 1.12 9.26.62 4.53-.37 10.78-.35 13.9.04 5.41.68 5.65.83 5.36 3.38zM453.1 368.67c4.52 7.9 5.81 7.26 12.99-6.42 3.25-6.19 5.91-12.32 5.91-13.62 0-2.39-4.36-11.12-6.08-12.18-.51-.31-.92-1.25-.92-2.09s-1.44-4.42-3.19-7.95c-3.4-6.83-5.66-8.06-7.58-4.16-3.94 7.98-10.23 21.89-10.23 22.62 0 .49-.69 1.45-1.52 2.15-1.86 1.54-1.12 4.38 2.16 8.31 1.3 1.55 2.36 3.41 2.36 4.12 0 .72.67 1.86 1.49 2.54.83.69 2.9 3.69 4.61 6.68zm274.12 243.99c2.7 1.5 3.04 1.59 2.46.59-.47-.79-.02-1.2 10.32-9.39 5.77-4.57 8.32-6.52 9.32-9.08.78-2 .61-4.38.3-8.7l-.04-.58c-.86-11.98-2.6-20.72-4.43-22.24-1.22-1.01-2.15-.74-5.07 1.47-1.97 1.48-4.18 3.28-4.91 3.99s-2.2 1.76-3.28 2.34c-1.07.57-1.68 1.46-1.36 1.98s-.96 1.68-2.84 2.57l-3.42 1.63.33 17.08c.32 16.58.4 17.11 2.62 18.34zm65.28 131.8c-4.94 1.43-13.65 1.82-19.5.86-7.16-1.18-11.42-4.9-8.43-7.38 1.23-1.02 3.17-.95 10.23.41 7.43 1.43 9.36 1.48 13.2.37 4.21-1.22 4.5-1.53 4.5-4.76 0-2.97-.5-3.69-3.5-5.12-1.92-.92-7.06-2.47-11.41-3.46-9.49-2.15-13.7-4.76-15.23-9.41-1.49-4.55 1.06-9.83 6.3-13.07 7.88-4.87 30.34-2.91 31.14 2.72.45 3.13-1.57 3.42-12.44 1.78-9.31-1.39-9.92-1.37-12.33.42-1.39 1.03-2.67 3.05-2.84 4.47-.4 3.33 2.41 4.79 13.81 7.17 13.95 2.92 17 5.27 17 13.08 0 6.5-2.8 9.68-10.5 11.92zM650.17 503.5c6.78 2.34 13.12 4.31 14.08 4.38 2.15.15 5.08-2.68 7.35-7.08.93-1.81 2.78-4.73 4.11-6.48 2.11-2.77 2.87-5.91 2.42-9.94-.07-.62-2.27-1.67-4.88-2.34-2.61-.68-5.65-1.6-6.75-2.06s-5.52-1.58-9.83-2.5c-9.36-1.98-9.98-1.64-14.78 7.96-1.66 3.33-3.77 7.28-4.69 8.77-1.27 2.06-1.39 3-.51 3.88.63.63 6.7 3.07 13.48 5.41zm-92.2-128.03c2.45 2.61 5.96 2.99 6.66.72.86-2.77 8.66-17.59 9.94-18.88 1.92-1.96.72-8.77-2.38-13.45-1.58-2.4-4.4-7.17-6.27-10.61-1.86-3.44-3.84-6.24-4.4-6.23-2.33.05-5.61 3.93-9.33 11.06-2.18 4.17-4.55 8.52-5.27 9.67-1.16 1.86-.71 3.35 3.89 13.03 2.85 6.02 5.19 11.31 5.19 11.76 0 .46.89 1.78 1.97 2.93zm161.58 190.28c.21.69 1.35 1.25 2.52 1.25 1.87 0 4.41-2.14 18.13-15.28 2.11-2.02 2.19-8.15.14-9.85-.68-.57-1.77-2.64-2.42-4.61-1.03-3.11-4.4-8.28-9.48-14.51-.78-.96-1.81-1.75-2.29-1.75-1.17 0-10.15 9.65-10.15 10.91 0 .54-1.14 2.22-2.54 3.72-1.39 1.51-2.32 3.3-2.05 3.99.26.69-.03 1.42-.66 1.63-.72.24.38 3.5 2.98 8.82 2.26 4.63 4.41 9.78 4.78 11.43.36 1.65.83 3.56 1.04 4.25zM540 630.57c5.83 2.39 8.86 2.87 10.51 1.66 1.31-.95 6.49-8.94 6.49-10.01 0-.46 1.16-2.38 2.57-4.28 4.48-6 4.68-6.69 2.45-8.92-1.11-1.11-3.34-2.02-4.96-2.02s-3.22-.45-3.56-1-1.4-1-2.35-1-3.49-.9-5.65-2c-3.96-2.02-12.5-2.55-12.5-.78 0 .49-.52.58-1.15.18-.67-.4-.89-.27-.53.31.35.56-.2 1.78-1.23 2.71-1.02.92-2.11 2.93-2.41 4.45-.31 1.53-1.95 4.13-3.65 5.79-2.08 2.04-2.87 3.58-2.43 4.73.67 1.76 8.77 6.24 18.4 10.18zM385.75 524.52c4.42 3.89 5.86 3.24 9.35-4.24 1.73-3.69 3.77-8.49 4.53-10.66.77-2.17 1.89-4.54 2.5-5.27 1.72-2.08.04-8.39-3.22-12.1-1.6-1.83-2.93-3.87-2.95-4.53-.03-.67-2.01-3.41-4.41-6.08l-4.36-4.87-1.74 2.87a137.06 137.06 0 0 1-3.62 5.6c-1.03 1.51-2.15 4.21-2.48 6-.34 1.79-1.5 4.75-2.6 6.56-1.32 2.21-1.79 4.26-1.4 6.18.33 1.69.12 3.03-.52 3.24-.72.24-.62.87.31 1.82 2.88 3 7.86 10.4 7.86 11.7 0 .75 1.24 2.45 2.75 3.78zm50.57-116.27c2.01 3.16 3.91 5.75 4.23 5.75.31 0 .29-.45-.05-1s.01-1 .77-1c.77 0 1.86-1.01 2.42-2.25l3.92-8.63c1.59-3.51 3.91-7.56 5.16-9 2.81-3.23 2.37-5.75-2.2-12.62l-6.88-10.67c-4.82-7.67-6.92-7.37-10.22 1.49-.99 2.66-2.55 5.81-3.48 7-.92 1.2-2.5 4.36-3.5 7.02-1.56 4.12-1.62 4.97-.41 5.73.84.53.95.91.26.91-1.84.03-.42 3.56 3.09 7.71 1.78 2.09 4.88 6.4 6.89 9.56zm278.18-12.32c6.72 1.94 8.36.94 13.63-8.33 5.42-9.56 6.13-13.31 2.62-14.01-5.37-1.06-14.8-2.63-21.64-3.6-8.42-1.2-10.16-.39-12.84 5.95-.8 1.89-2.54 5.03-3.86 6.98-2.09 3.07-3.52 8.53-1.79 6.79.34-.34 1.27.04 2.07.84s2.43 1.46 3.63 1.47c2.14.02 12.27 2.2 18.18 3.91zm-101.49 99.05c1.92.45 5.52.86 7.99.91 4.08.08 4.71-.24 6.75-3.39 1.24-1.91 2.25-3.66 2.25-3.9 0-.23 1.58-2.82 3.5-5.74 5.64-8.56 4.52-10.46-6.7-11.42-3.47-.3-9.11-1.02-12.55-1.61-7.82-1.32-9.79-.24-13.72 7.53-1.54 3.04-3.37 5.75-4.07 6.02-1.81.69-2.88 6.41-1.51 8.06.62.75 4.16 1.67 7.85 2.04 3.7.37 8.29 1.04 10.21 1.5zm63.49-20.82c2.75 1 6.57 1.71 8.48 1.58 3.1-.21 3.99-1.01 8.19-7.24 2.59-3.85 4.73-7.78 4.77-8.72.06-1.83-4.61-4.76-7.64-4.8-.99-.01-3.83-.95-6.3-2.07-4.02-1.83-7.6-2.85-16.13-4.57-3.02-.61-5.8 2.47-10.28 11.43-3.52 7.01-2.73 8.29 6.58 10.69 4.03 1.04 9.58 2.71 12.33 3.7zM604 606.94c8.31 1.45 10.63-.11 13.9-9.38 1.26-3.56 2.92-7 3.69-7.64 1.69-1.4 1.83-3.54.29-4.49-.61-.38-7.45-1.29-15.19-2.03-10.72-1.01-14.4-1.05-15.47-.17-2.4 2-10.22 16.11-10.22 18.45 0 2.7 4.64 4.27 13 4.39 3.03.04 7.53.43 10 .87zm114.69-111.02c3.75 3.17 7.31 5.59 7.92 5.37 1.87-.67 10.39-13.19 10.39-15.28 0-3.59-7.56-10.31-20.25-18l-6.75-4.1-2.35 2.3c-2.78 2.7-9.65 13.04-9.65 14.53 0 .57 3.12 2.92 6.94 5.22 3.82 2.31 10 6.79 13.75 9.96zm-299.2-49.58c1.65 2.56 3.36 4.66 3.81 4.66s.57-.4.27-.89c-.3-.48.35-1.12 1.44-1.4 1.1-.29 1.99-1.26 1.99-2.15 0-.9.77-2.81 1.71-4.25.95-1.43 1.79-3.13 1.89-3.77.09-.63 1.16-3.15 2.38-5.6 3.42-6.86 2.84-10.53-3.03-19.23-5.8-8.59-8.33-11.18-10.16-10.42-1.29.52-5.82 8.86-9.81 18.04-2.3 5.29-2.04 9.14.85 12.28.95 1.04 2.62 3.28 3.7 4.98l4.96 7.75zM542 337.12c0 2.25 1.85.42 4.43-4.37 5.8-10.8 7.78-14.28 8.66-15.2 1.38-1.44 1.08-4.71-.74-8.05l-3.51-6.5-2.85-5.25c-.55-.96-1.35-2.5-1.8-3.41-.44-.92-1.73-2.29-2.88-3.05-1.95-1.3-2.33-.96-6.62 5.92-2.51 4.01-5.49 8.49-6.62 9.95-1.14 1.46-2.07 3.69-2.07 4.95 0 3.47 10.15 23.12 12.22 23.66.98.25 1.78.86 1.78 1.35zM366.93 558.75c2.6 3.29 3.81 4.28 2.44 2-.59-.98-.41-.97.81.02 1.73 1.4 3.94.86 7.98-1.94 1.97-1.36 3.37-4.05 5.37-10.32 2.91-9.14 2.79-11.49-.75-15.73-3.86-4.6-8.28-10.89-8.28-11.77 0-1.37-1.4-2.37-3.52-2.53-2.14-.16-6.95 6.84-7.01 10.2-.02 1-1.14 4.07-2.49 6.82-2.34 4.76-3.44 13.5-1.7 13.5.44 0 1.64 1.46 2.69 3.25 1.04 1.79 3.05 4.71 4.46 6.5zM763 653.69c0 .45-11.48.87-25.5.93-20.84.11-25.5-.12-25.5-1.22 0-.75 1.77-2.26 3.93-3.37 2.16-1.1 4.22-2.46 4.56-3.02.35-.55 1.37-1.01 2.27-1.01s4.65-2.03 8.34-4.5 7.21-4.5 7.81-4.5c.61 0 2.08-1.12 3.28-2.5 1.19-1.38 2.62-2.5 3.18-2.5.55 0 2-.94 3.22-2.09 1.82-1.7 2.6-1.88 4.3-.97 1.15.62 2.39 2.33 2.76 3.81.37 1.47 1.46 3.53 2.43 4.57.96 1.03 2.05 3.04 2.4 4.47.36 1.42 1.44 3.74 2.4 5.15 1.86 2.72 2.64 7.5 1.06 6.52-.52-.32-.94-.21-.94.23zM426.6 517.46c1.27 1.27 1.92 1.36 3.05.41.79-.65 1.2-1.82.91-2.58-.3-.77-.17-1.17.27-.9.76.48 3.95-4.02 4.02-5.67.02-.43 1.42-3.72 3.12-7.31 3.72-7.88 3.28-10.89-2.69-18.18-2.13-2.6-4.65-5.97-5.6-7.48-1.12-1.79-2.59-2.75-4.18-2.75-1.87 0-2.61.66-3.08 2.75-.34 1.51-2.64 6.91-5.1 12l-4.48 9.26 2.26 4.99c1.24 2.75 2.6 5 3.03 5s2.14 1.99 3.82 4.43c1.67 2.43 3.77 5.14 4.65 6.03zm307.95-151.37c.31.5 1.3.91 2.19.91 1.85 0 6.26-3.81 6.26-5.4 0-.59 1.63-3.7 3.62-6.92 3.28-5.33 3.47-6.01 2.05-7.43-1.77-1.78-8.47-2.86-23.67-3.82-9.49-.61-10.66-.49-12.18 1.2-1.54 1.72-7.82 13.58-7.82 14.77 0 .5 3.99 1.71 10.5 3.19 3.8.87 10.75 1.61 16.34 1.75 2.38.05 3.84.27 3.24.47s-.84.77-.53 1.28zM563.5 600c.34.55 1.72 1 3.07 1 2.44 0 3.35-1.02 10.03-11.37 2.75-4.25 2.94-9.42.4-10.66-3.32-1.61-11.65-3.98-14.01-3.97-1.38 0-3.65-1.01-5.04-2.25s-2.97-2.33-3.52-2.43c-1.3-.23-3.51 2.56-9.06 11.41-4.57 7.3-5.11 9.88-2.37 11.38 3.83 2.11 14.92 5.89 17.27 5.89 1.44 0 2.89.45 3.23 1zm-42.92-299.87c1.21 1.96 4.43.18 6.01-3.34.94-2.08 2.07-3.79 2.49-3.79.43 0 1.09-1.01 1.45-2.25.37-1.24 1.98-3.91 3.57-5.94 3.54-4.51 3.72-8.52.6-13.58-1.27-2.05-3.58-6.29-5.14-9.43-1.56-3.13-3.51-5.95-4.35-6.27-1.36-.53-8.21 5.6-8.21 7.35 0 .34-1.58 3.23-3.5 6.42-1.93 3.19-3.5 6.91-3.5 8.27 0 1.88 6.92 16.64 10.58 22.56zm35.01-9.59c3.07 5.75 6.19 10.46 6.93 10.46 1.61 0 4.48-2.71 4.48-4.24 0-.6 2.08-4.44 4.63-8.52 4.41-7.07 4.6-7.69 4.06-12.94-.31-3.03-1.19-6.25-1.96-7.15-2.68-3.16-7.62-12.93-6.93-13.7.39-.42.14-.45-.55-.05-.69.39-1.25.24-1.25-.34 0-2.06-3.81 2.78-7.52 9.57-2.07 3.78-4.6 7.94-5.62 9.25-2.87 3.68-2.3 6.36 3.73 17.66zm-31.13 296.57c6.63 2.39 7.42 2.34 8.52-.56.51-1.34 2.55-4.74 4.52-7.55 5.14-7.31 5.79-9.43 3.52-11.48-1.02-.93-4.93-2.68-8.69-3.89s-7.82-2.75-9.04-3.43c-3.3-1.83-11.29-.55-11.29 1.81 0 .49-1.33 2.87-2.97 5.28-1.63 2.42-3.41 5.59-3.97 7.05-.89 2.33-.68 2.86 1.72 4.38 1.49.95 2.98 2.09 3.29 2.53.32.44 1.53.98 2.69 1.2 1.16.23 3.14.96 4.39 1.63s4.55 2.04 7.31 3.03zm-25.58 23.41c8.31 4.23 11.27 5.28 13.62 4.82 3.62-.69 3.47-.57 3.97-3.19.23-1.17 1.6-3.69 3.06-5.6 3.72-4.87 6.6-10.82 5.69-11.73-.42-.42-1.65-.91-2.74-1.09s-2.89-.83-4-1.44-3.73-1.43-5.83-1.83c-2.1-.39-4.88-1.78-6.19-3.09-3.93-3.93-7.73-3.21-11.91 2.27-1.95 2.56-3.55 5.2-3.55 5.87s-.9 2.37-2 3.77c-1.16 1.46-1.74 3.24-1.37 4.19.34.9 5.41 4.07 11.25 7.05zm-134.8 130.23c-1.12 4.1-1.3 4.25-5.15 4.25-5.6 0-5.74-.5-5.85-20.78-.07-12.65-.28-14.36-1.83-14.93-.96-.35-2.05-1.1-2.42-1.65-.44-.66-2.1-.58-4.85.25-3.66 1.09-4.4 1.04-6.08-.48-1.04-.94-1.9-2.78-1.9-4.06V701h21.88c20.83 0 21.91.09 22.39 1.94.88 3.35-2.41 5.31-7.58 4.54-3.74-.56-4.83-.34-6.52 1.35-1.89 1.89-1.99 2.9-1.48 14.85.36 8.33.15 14.31-.61 17.07zM633.83 464.5c.83.83 5.87.56 8.54-.45 2.55-.97 11.97-15.69 11.02-17.23-.83-1.35-7.58-2.71-19.12-3.85-14.22-1.41-15.31-.88-20.43 9.86-2.01 4.22-3.36 7.97-3 8.34.36.36 5.57 1.15 11.58 1.75 6 .59 11.14 1.3 11.41 1.58zm28.94-75.28c7.55.15 14.49-.06 15.41-.47.93-.41 3.73-4.76 6.22-9.66 3.43-6.75 4.24-9.14 3.32-9.89-1.6-1.3-21.45-2.62-26.96-1.79-3.87.58-4.53 1.11-6.74 5.37-1.34 2.59-3.48 6.42-4.76 8.49-1.81 2.95-2.08 4.19-1.26 5.72.94 1.77 2.33 1.98 14.77 2.23zm-258.04 95.93c2.81 3.31 5.53 1.41 7.75-5.38.94-2.9 2.84-7.67 4.23-10.6 3.28-6.97 2.78-9.05-4.76-19.66-5.33-7.5-6.33-8.44-7.71-7.31-2.12 1.74-11.67 21.8-11.49 24.15.13 1.65 8.3 14.48 11.98 18.8zm136.59-220.87c.6 1.66.86 1.68 3.66.23 1.66-.86 3.02-2.15 3.02-2.88 0-.72 2.31-5.1 5.13-9.72 5.42-8.88 6.41-13.51 3.58-16.72-.82-.93-2.89-4.5-4.61-7.94-3.57-7.12-6.08-8.14-8.09-3.26-.69 1.64-1.59 2.77-2.01 2.51s-1.34.98-2.05 2.76c-.7 1.78-1.9 3.97-2.66 4.87-2.18 2.57-5.29 9.11-5.29 11.12 0 1 1.95 5.29 4.33 9.53 2.39 4.25 4.63 8.52 4.99 9.5zM491.36 573c2.28.52 3.41.3 4.14-.79l.36-.55c8.7-13.1 10.05-15.12 9.62-16.64-.09-.3-.24-.58-.43-.92-1.23-2.3-4.1-4.1-6.55-4.1-.89 0-3.96-1.07-6.81-2.39-8.66-3.98-10.15-4.04-13.1-.53-1.43 1.69-2.59 3.69-2.59 4.45s-1.12 3.04-2.5 5.07c-4 5.89-3.44 7.94 2.75 9.94 2.89.94 6.76 2.62 8.61 3.73 1.85 1.12 4.77 2.35 6.5 2.73zm172.29-215.41c1.55 2.36 1.87 2.41 15.88 2.41h14.3l3.13-3.96c1.73-2.17 3.32-4.92 3.55-6.1s.89-2.72 1.47-3.42c3.17-3.82-4.03-5.5-23.64-5.51-6.77-.01-7.3.16-9.75 3.07-1.43 1.69-2.59 3.76-2.59 4.59s-.88 2.64-1.96 4.01c-1.82 2.32-1.85 2.68-.39 4.91zM609.1 389.1c1.64 1.64 2.79 1.95 5.25 1.42 1.73-.37 7.01-.98 11.72-1.35 7.75-.61 8.83-.95 11.25-3.57 1.47-1.59 2.68-3.43 2.68-4.1 0-.66 1.11-3.29 2.47-5.85s2.04-4.65 1.5-4.65c-.53 0-.97-.65-.97-1.44 0-1.2-2.08-1.35-12.75-.9-15.9.66-16.52 1.01-21.68 12.24-2.06 4.48-1.98 5.69.53 8.2zm138.15 143.65c.55.69 1.4 1.25 1.89 1.25 1.29 0 12.76-12.17 13.43-14.25.31-.97-.36-3.05-1.5-4.66-1.14-1.59-2.07-3.15-2.07-3.45 0-2.27-11.05-15.64-12.93-15.64-.88 0-4.18 3.57-7.34 7.94l-5.74 7.94 5.01 6.62c2.76 3.64 5.74 8.06 6.63 9.81s2.07 3.75 2.62 4.44zM470.5 597.72c1.1.67 3.09 1.23 4.42 1.25 2.37.03 6.08-2.47 6.08-4.1 0-.44 1.38-2.76 3.06-5.15 1.68-2.38 3.27-5.72 3.54-7.41.41-2.64.13-3.16-2.05-3.71-1.4-.35-2.69-.52-2.87-.37s-1.11-.52-2.07-1.48c-.97-.96-2.76-1.75-3.99-1.75-1.24 0-4.18-.93-6.54-2.07l-4.29-2.08-2.4 2.25c-1.31 1.24-2.39 2.66-2.39 3.15 0 .5-1.61 3.34-3.58 6.3-1.97 2.97-3.43 6.18-3.24 7.14.22 1.13 2.78 2.62 7.33 4.27 3.84 1.4 7.89 3.09 8.99 3.76zm97.79-106.46l9.96.54c.96.11 1.75-.28 1.75-.86s.38-.82.85-.53c1.06.65 5.21-3.64 5.52-5.7.12-.83.71-2.12 1.3-2.86 1.85-2.3 5.33-9.69 5.33-11.31 0-1.26-1.5-1.54-8.38-1.54-4.6 0-9.72-.27-11.36-.6-3.61-.72-5.73 1.23-10.92 10.03-2.79 4.75-3.37 6.6-2.88 9.21l.62 3.28zM399.33 544.1c2.6 2.43 7.7 1.89 10.97-1.17 1.14-1.06 2.78-1.94 3.64-1.96 2.05-.04 4.13-1.75 6.85-5.62 3.99-5.69 3.41-7.46-7.32-22.25-1.36-1.87-2.47-2.89-2.47-2.28s-.68.86-1.51.54c-1.48-.57-1.9.19-8.47 15.14l-3.45 7.78c-1.9 4.23-1.43 6.84 1.76 9.82zm361.18 36.27c2.39 2.38 3.81.87 6.27-6.63 4.12-12.58 5.3-26.58 2.98-35.48-1.47-5.64-2.83-7.36-4.88-6.21-1.84 1.03-10.12 11.32-10.57 13.13-1.42 5.78-1.41 7.86.01 9.28.85.85 2.07 4.13 2.71 7.29.65 3.16 1.57 7.01 2.04 8.55s.61 4.05.3 5.59c-.37 1.87 0 3.34 1.14 4.48zm-189.8-186.14c1.2 1.33 2.44 1.7 4.22 1.25 1.39-.35 5.01-1.08 8.05-1.62 12.83-2.29 12.64-2.17 16.51-10.54 3.52-7.61 4.23-10.75 2.68-11.72-.75-.46-18 2.31-24.51 3.95-3.69.93-8.66 8.49-8.66 13.17 0 2.01.76 4.46 1.71 5.51zm-130.1 191.61c3.21 1.87 4.35 1.32 7.16-3.47 1.5-2.55 3.74-6.17 4.98-8.04 1.24-1.88 2.25-4.27 2.25-5.32 0-2.07-3.52-5.01-6.01-5.01-.86 0-3.33-.9-5.49-2-2.23-1.14-5.41-1.89-7.37-1.74-2.99.23-3.83.93-6.26 5.25-1.55 2.75-3.53 6.56-4.4 8.49-1.49 3.31-1.47 3.57.43 5 5.76 4.31 7.63 5.34 10.11 5.53 1.49.12 3.56.71 4.6 1.31zm181.14-225.39c.41.42 6.6.47 13.75.1 12.91-.68 17.5-1.94 17.5-4.83 0-.68 1.1-3.3 2.44-5.81 3.87-7.27 3.21-8.31-5.02-7.96l-13.74.51c-5.98.19-7.13.55-9.33 2.91-1.37 1.49-2.72 3.92-2.99 5.41-.27 1.48-1.13 3.42-1.92 4.29-1.57 1.73-1.88 4.14-.69 5.38zm-39.44 6.85c.65.24 1.86.08 2.69-.34s3.75-1.09 6.5-1.49c8.46-1.23 17.74-3.31 18.55-4.16.42-.45 2.15-3.41 3.86-6.58 5.49-10.24 4.69-10.85-11.32-8.63-12.64 1.76-16.59 3-16.59 5.22 0 .69-.93 3.04-2.07 5.22-3.25 6.2-4.12 8.7-2.76 7.85.78-.48.96-.18.56.88-.34.88-.08 1.79.58 2.03zm56.23 376.64c-.72 1.15-8.79 1.48-9.87.39-.84-.83-.89-39.59-.06-41.75.44-1.14 1.96-1.58 5.48-1.58 4.36 0 4.94.26 5.5 2.49.77 3.1-.16 39-1.05 40.45zM576.29 460c-.5 1.91-.03 2 10.59 2 9.79 0 11.36-.24 13.12-2 1.1-1.1 2-2.38 2-2.85 0-.46.9-1.88 2-3.15s2-3.11 2-4.09c0-.99.45-2.07 1-2.41 1.54-.95 1.18-3.5-.5-3.5-.83 0-1.5-.41-1.5-.91 0-1.55-20.27-.04-22.21 1.66-2.22 1.93-8.12 13.25-6.9 13.25.51 0 .69.9.4 2zm-38.42 31.54c1.12 1.13 7.46-.42 9.25-2.26 2.42-2.46 9.88-15.88 9.88-17.75 0-1.28-1.7-1.53-10.25-1.51-11.92.03-12.93.55-17.14 8.82-3.79 7.44-3.3 9.37 2.76 10.86 2.68.66 5.15 1.49 5.5 1.84zm13.61-27.57c.45.72 1.61.93 2.88.52 1.18-.37 3.38-.91 4.9-1.2 2.77-.52 7.74-5.42 7.74-7.63 0-.66 1.15-2.88 2.55-4.95 1.4-2.06 2.25-4.23 1.88-4.82-.68-1.11-15.52-.58-20.43.73-2.89.77-6 3.22-6 4.73 0 .57-1.16 2.71-2.57 4.75-2.44 3.52-2.49 3.81-.87 5.69 1.31 1.54 2.53 1.87 5.44 1.48 2.33-.31 4.02-.05 4.48.7zm-90.99 259.69c.23.71 1.86 1.02 4.2.78l9.46-.97c6.23-.65 8.47-2.33 9.42-7.07.8-4.01-1.94-7.26-7.07-8.37-5.29-1.15-15.55-.57-16.47.93-.7 1.12-.35 12.21.46 14.7zm61.72-.2c.88 1 3.38 1.48 7.89 1.5 8.64.05 13.25-2.69 13.7-8.14.58-6.85-7.05-10.77-18.8-9.65l-3.5.33-.29 7.25c-.2 4.87.13 7.72 1 8.71zm57.69-.74c2.29 1.74 12.36 1.56 17.02-.3 4.75-1.9 7.57-5.63 6.2-8.18-2.67-4.95-5.67-6.41-13.64-6.6-4.24-.11-8.29.27-8.99.83-.71.57-1.49 3.73-1.74 7.03-.36 4.7-.11 6.26 1.15 7.22zM437.25 527.34c2.38.96 3.73.65 9.97-2.3 6.94-3.28 10.78-6.18 10.78-8.15 0-2.34-9.35-14.89-11.1-14.89-.42 0-2.41 3.49-4.44 7.75l-5.07 10.65c-1.72 3.6-1.78 6.28-.14 6.94zm230.51-100.17c-1.54.98-3.48.93-6.76-.16a61.86 61.86 0 0 0-5.25-1.44c-2.05-.45-2.75-1.21-2.75-2.97 0-1.29-.62-2.87-1.37-3.49-1.65-1.37-5.07-10-4.28-10.79.71-.72 12.89.56 14.2 1.49 1.19.84 4.88 8.42 6.38 13.12.84 2.65.8 3.62-.17 4.24zM508.84 485.3c7.07 2.91 8.68 2.36 12.56-4.27 5.82-9.93 5.5-11.03-3.22-11.03h-6.82l-3.56 5.11c-4.19 6.02-3.98 8.13 1.04 10.19zm7.08-23.94c1.21 2.24 1.7 2.36 7.93 1.89 7.53-.57 9.34-1.72 10.94-6.92.96-3.13.88-3.86-.58-5-.94-.73-2.61-1.1-3.71-.83-1.1.28-3.65.78-5.66 1.11-2.31.39-4.88 1.87-6.93 3.99-2.97 3.05-3.15 3.58-1.99 5.76zM346.25 571.5c.52.6.88 1.01 1.33 1.19.96.4 2.35-.21 6.73-2.15l.04-.02c6.87-3.03 7.99-5.71 4.49-10.69-4.61-6.56-7.03-6.58-9.43-.08-.96 2.61-2.35 5.46-3.08 6.33-1.66 1.97-1.69 3.6-.08 5.42zm150.73-96.54c.93 1.74 1.44 1.93 2.59.98 1.56-1.29 7.73-12.94 6.86-12.94-.3 0 .22-1.29 1.15-2.87 1.86-3.15 1.26-8.57-.87-7.87-1.8.59-5.79 7.98-5.34 9.89.23.97-.58 2.16-1.98 2.91-2.81 1.5-4.09 6.75-2.41 9.9zm-8.28-3.71c.67 1.2 1.15.91 2.91-1.77 2.56-3.92 4.45-14.18 2.85-15.51-.95-.79-1.69-.48-2.87 1.2-.87 1.25-1.59 2.97-1.59 3.83s-.69 2.54-1.53 3.74c-1.37 1.96-1.27 5.84.23 8.51z" fill="#0349bd"/><path d="M684.5 653.81c-9.9 2.45-16.5 3.29-16.5 2.09 0-.49.5-.9 1.11-.9 2.64 0 17.83-10.02 24.09-15.88 11.15-10.43 16.8-25.24 16.8-43.99 0-22.14-8.1-41.32-23.78-56.29-11.75-11.23-22.08-16.86-43.62-23.76-24.74-7.92-57.56-11.99-97.6-12.08-29.55-.08-47.42-4.98-61.73-16.94-19.57-16.35-25.67-45.89-14.34-69.44 5.09-10.58 12.26-18.17 22.86-24.2.49-.28-12.96-27.41-13.87-27.97-.83-.51-10.92 18.46-10.92 20.54 0 .57 2.07 4.15 4.6 7.95l4.6 6.92-3.27 4.07c-1.79 2.24-3.75 4.06-4.35 4.04-.59-.01-2.59-2.52-4.43-5.56-3.08-5.09-3.45-5.38-4.72-3.72-.75 1-1.38 2.21-1.4 2.7s-2.32 5.71-5.11 11.59l-5.08 10.71 5.08 7.78c4.97 7.62 5.08 7.95 5.1 15.41.02 5.78.62 9.07 2.5 13.62 1.36 3.3 2.47 6.5 2.48 7.12 0 .62-2.3 5.95-5.12 11.84l-.37.79c-2.89 6.03-4.18 8.72-3.77 11.13.34 2.04 1.9 3.88 4.72 7.39l3.45 4.27 10.35-19.2 3.62 3.42c7.66 7.23 9.81 8.86 16.12 12.14 13.06 6.82 26.4 9.07 60 10.14 18.24.58 56.51 3.64 65.5 5.25l4 .71 22.52 44.47-3.6 1.5c-1.98.83-6.6 2.07-10.26 2.75-7.31 1.37-35.04 1.73-39.4.51-2.38-.66-4.35-4.02-15.25-25.94-6.88-13.85-12.51-25.77-12.51-26.49 0-1.75-2.48-1.65-19.76.76-59.73 8.35-96.05 21.89-181.74 67.75l-21.75 11.63c-4.42 2.36-5.99 3.82-6.84 6.38-.61 1.82-.93 3.5-.7 3.72.22.22 1.95-.64 3.85-1.91 9.44-6.37 72.71-39.19 73.68-38.22.68.67-1.29 5.52-18.31 45.09L374.44 647c-1.54 3.58-3.22 7.06-3.74 7.75-.74.97-13.09 1.25-55.82 1.25-30.19 0-54.88-.24-54.88-.53 0-.3 2.89-7.16 6.42-15.25l34.06-77.72 10.52-24c.43-1.1 6.07-13.92 12.53-28.5l18.48-42 40.98-93 19.8-45 16.64-38 22.85-51.72c7.82-17.72 14.72-32.23 15.32-32.25.61-.02 3.38 4.81 6.17 10.72l84.14 173.62L565 427.53c0 .16-3.26.82-7.25 1.46-3.99.65-14.82 2.72-24.07 4.59-9.25 1.88-17.46 3.42-18.25 3.42-.86 0-4.72-6.67-9.68-16.75L497.17 403c-.19-.27-1.63.94-3.2 2.71-2.92 3.27-5.97 11.58-5.96 16.22.01 8.17 4.59 15.04 12.45 18.7 7.5 3.5 13.69 3.06 43.19-3.02 63.04-13.02 126.2-9.06 164.77 10.31 20.32 10.2 38.37 24.69 51.84 41.6 27.91 35.04 31.37 70.92 10.14 105.26-6.64 10.74-24.1 27.95-36.9 36.38-16.12 10.62-34.29 19.02-49 22.65zm-314.88-1.31c.81-1.1 1.74-3.12 2.07-4.5.32-1.38 1.6-4.3 2.84-6.5 1.23-2.2 3.9-8.05 5.92-13l5.74-13.5c4.53-9.88 8.71-20 8.25-20-.26 0 .44-1.8 1.56-4s1.69-4.01 1.27-4.02c-.42 0-.19-.38.52-.83 1.54-.98 7.21-14.54 7.21-17.25 0-1.05-.4-1.9-.88-1.9-1.45 0-8.38 3.05-12.1 5.32-1.91 1.17-4.3 2.25-5.3 2.41-1 .15-4.6 2.12-7.99 4.37-3.4 2.26-7 4.26-8.02 4.46-2.34.45-17.35 8.56-25.16 13.6-3.27 2.11-6.48 3.84-7.13 3.84-.64 0-1.74.67-2.42 1.5-1.87 2.25-6 1.95-6-.43 0-6.28 3.76-9.09 31.1-23.23 8.14-4.21 15.83-8.38 17.08-9.25 1.24-.87 2.83-1.59 3.52-1.59.7 0 3.63-1.51 6.53-3.36s6.39-3.71 7.77-4.13c1.38-.43 3.62-1.56 5-2.52s4.98-2.77 8-4.03 6.21-2.9 7.08-3.63 1.96-1.33 2.42-1.33 1.55-.6 2.42-1.34 4.17-2.13 7.33-3.09c3.16-.97 5.75-2.16 5.75-2.66s.4-.91.88-.91 2.62-.75 4.75-1.68c2.13-.92 4.63-1.81 5.56-1.98s4.76-1.72 8.5-3.44c9.22-4.23 11.31-5.02 14.81-5.59 1.65-.27 3.71-1.12 4.57-1.89s4.01-1.86 7-2.43c2.99-.56 7.23-1.65 9.43-2.41s7.6-2.14 12-3.07l14-3.05c3.3-.74 8.06-1.61 10.58-1.94 2.85-.37 4.59-1.1 4.59-1.92 0-.95-2.41-1.52-8.4-1.98-4.62-.35-11.05-1.54-14.3-2.63s-6.65-1.99-7.57-1.99c-3.19 0-14.25-6.22-19.71-11.09-3.03-2.7-6.43-4.91-7.54-4.91-2.55 0-5.15 3.6-5.15 7.13 0 2.55-4.77 7.87-7.05 7.87-.49 0-2.7-2.46-4.92-5.46-4.85-6.57-5.23-10.67-1.53-16.54 1.38-2.18 2.5-4.9 2.5-6.04s.45-1.8 1-1.46c.58.36 1-.64 1-2.38 0-1.65.45-3.28 1-3.62s1-1.34 1-2.23c0-1.68-2.76-5.27-4.06-5.27-.91 0-5.94 8.42-5.94 9.95 0 1.9-4.97 9.05-6.26 9.01-.08 0-.18-.04-.32-.13 1.61-1.95 11.58-22.43 11.58-23.93 0-1.14-13.11-18.9-13.95-18.9-.36 0-3.06 5.42-5.99 12.04-2.66 6.02-4.06 9.68-4.48 11.8-.93-3.28-.58-6.03.92-8.71.81-1.44 2.38-5.13 3.49-8.19 2.41-6.65 4.86-10.12 5.69-8.08.43 1.04.74 1.07 1.31.16.48-.78 2.48 1.37 5.63 6.07 2.68 4 5.33 7.08 5.88 6.84.55-.23.99-2.73.98-5.55-.02-4.36-.64-6.02-4.25-11.28-5.22-7.61-5.33-10.38-.73-18.24 1.92-3.28 3.5-6.53 3.5-7.22 0-1.77 5.76-10.64 6.92-10.64.52 0 2.41 2.02 4.19 4.5 3.52 4.9 5.26 5.55 6.85 2.57 1.63-3.05 1.31-4.17-3.16-11.01-2.36-3.61-3.72-6.59-3.1-6.79.6-.2.88-1.15.63-2.11-.66-2.52 7.97-18.36 10.52-19.3 1.82-.67 2.55.04 5.54 5.43 1.9 3.42 4.66 8.8 6.15 11.96 1.48 3.16 3.09 5.75 3.58 5.75.48 0 .88 1.55.88 3.44 0 3.08-.5 3.71-4.9 6.1-4.94 2.69-12.36 10.4-16.07 16.69-3.93 6.65-6.15 15.04-6.72 25.34-.49 8.88-.25 11.14 2.04 19.11 3.08 10.69 5.83 15.83 11.92 22.29 5.06 5.36 13.44 12.03 15.12 12.03.61.01 3.32 1.13 6.03 2.5 2.71 1.38 6.17 2.5 7.69 2.5s3.01.39 3.31.87c.58.95 20.25 3.2 25.08 2.87 9.58-.65 57.09 2.29 70 4.34 20.88 3.31 54.05 12.88 59.38 17.14.89.71 3.83 2.42 6.53 3.79 2.71 1.37 8.56 5.85 13 9.95 22.6 20.84 30.97 47.81 24.06 77.51-.89 3.83-2.21 8.11-2.93 9.5s-2.15 4.25-3.17 6.35c-1.03 2.1-4.34 6.36-7.37 9.47-3.03 3.1-5.38 6.03-5.23 6.5.16.47-.1.62-.57.34-.46-.29-1.61.37-2.55 1.46-.94 1.1-2.04 1.79-2.45 1.53-.42-.25-1.87.39-3.23 1.44l-2.47 1.9 4.19.02c2.31.01 4.44-.38 4.74-.87.3-.48 2.07-1.17 3.92-1.52 1.86-.34 4.18-1.52 5.17-2.61.98-1.09 3.06-1.98 4.6-1.98 2.87 0 15.96-5.93 21.7-9.84 8.04-5.47 9.14-6.16 9.78-6.16 2.42 0 30.4-25.91 30.4-28.15 0-.47.79-1.64 1.75-2.61 1.74-1.76 5.14-7.73 10.37-18.24 1.79-3.6 3.52-9.96 4.99-18.4l2.24-12.9-2.25-11.6c-2.19-11.3-6.08-23.07-8.62-26.1-.69-.83-2.39-3.75-3.79-6.5-3.14-6.19-5.6-9.5-14.32-19.24-7.35-8.19-8.14-8.99-14.04-14.03-7.97-6.8-11.11-9.01-20.83-14.7-5.5-3.21-10.67-6.37-11.5-7.02s-3.08-1.75-5-2.45c-3.66-1.32-4.42-1.62-12.38-5-2.68-1.13-5.79-2.06-6.91-2.06s-4.32-.66-7.12-1.47c-7.45-2.15-26.28-5.21-40.59-6.59-9.58-.92-17.88-.94-35.5-.08-12.65.62-25.03 1.55-27.5 2.07s-9.22 1.65-15 2.52-12.97 2.22-16 3.01-10.8 2.42-17.27 3.62c-13.78 2.56-20.84 2.15-27.57-1.61-2.43-1.36-4.97-2.47-5.65-2.47-1.87 0-4.51-10.74-4.51-18.35 0-5.25.57-7.84 2.61-11.86 2.63-5.2 6.23-9.01 7.66-8.12.43.26 4.42 7.91 8.87 16.99l8.09 16.52 5.13-.56 8.64-.95c1.92-.21 5.75-.93 8.5-1.59 2.75-.65 7.47-1.63 10.5-2.16 4.75-.85 8.28-1.74 13.79-3.48.9-.29-.51-3.98-4.68-12.18-8.56-16.88-13.11-26.59-13.11-28.02 0-.68-.37-1.24-.83-1.24s-1.41-1.24-2.11-2.75c-3.88-8.37-6.29-13.37-19.91-41.25l-15.67-33c-.42-1.38-1.73-4.08-2.9-6s-2.65-4.62-3.3-6l-21.08-43.58c-1.84-3.44-6.2-13.46-6.2-14.25 0-.43-1.35-2.91-3-5.51s-3-5.23-3-5.84c0-1.48-4.14-9.86-5.93-12.01-.78-.94-1.78-1.49-2.22-1.22-1.17.73-4.85 9.38-4.85 11.41 0 .97-.63 2.28-1.39 2.91-.77.64-1.97 2.6-2.67 4.37-.71 1.77-2.83 6.6-4.71 10.72-1.89 4.12-4.24 10-5.23 13.05-.98 3.05-2.93 7.24-4.33 9.3s-3.06 5.41-3.7 7.45c-.63 2.03-2.68 6.88-4.56 10.77-1.87 3.9-3.41 7.39-3.41 7.77 0 .39-1.74 4.4-3.86 8.93-3.69 7.88-5.17 11.18-8.76 19.48L403.97 331c-6.49 14.57-6.97 15.76-6.97 17.28 0 .81-.67 2.04-1.5 2.72s-1.5 1.99-1.5 2.9-.69 2.64-1.53 3.84-2.64 5.13-4 8.73c-1.35 3.61-4.55 10.71-7.1 15.79-4.89 9.73-9.74 21.74-8.79 21.74.31 0-.37 1.19-1.51 2.63-1.14 1.45-2.07 3.04-2.07 3.53s-1.53 4.15-3.4 8.12-4.98 11.05-6.91 15.72-4.83 11.2-6.44 14.5-3.51 7.58-4.22 9.5c-.72 1.92-2.87 6.88-4.78 11-1.92 4.12-4.06 9.12-4.77 11.1s-2.29 5.56-3.51 7.96c-2.13 4.18-7.8 17.35-8.37 19.44-.35 1.31-2 4.97-7.42 16.5-7.87 16.73-10.18 22.15-10.16 23.84.01.91-2.64 7.06-5.89 13.66s-7.33 15.38-9.08 19.5-3.56 8.22-4.03 9.1-2.51 5.6-4.53 10.5c-2.03 4.89-4.99 11.69-6.59 15.11-1.59 3.41-2.9 6.98-2.9 7.92s-.6 2.42-1.32 3.29c-.73.87-2.85 5.18-4.7 9.58-1.86 4.4-4 8.99-4.75 10.19-.76 1.21-1.24 3.23-1.06 4.5.33 2.31.37 2.31 20.33 2.81 11 .28 34.32.5 51.83.5 30.68 0 31.88-.07 33.29-2zm269.25 3.94c-14.38 2.11-41.91 1.91-55.87-.42-27.54-4.6-39.94-9.22-86.37-32.2-22.03-10.91-45.69-22.05-52.59-24.76-12.34-4.86-32.2-11.06-35.4-11.06-2.3 0-2.17-.53 2.71-11.62 2.39-5.43 5.18-12.08 6.19-14.78l1.84-4.9 13.06-6.26c7.18-3.45 14.17-6.6 15.53-6.99l2.48-.73-2.83 3.71c-1.55 2.03-2.55 3.97-2.22 4.3s3.98 2.07 8.11 3.87l7.51 3.26 5.01-7.6c5.34-8.09 5.32-8.7-.32-9.92-4.16-.9-2.85-2.42 4.86-5.61 9.09-3.77 11.36-3.46 30.43 4.25 39.5 15.96 69.99 26.48 87.5 30.19 15.31 3.24 34.54 3.24 46-.01 10.91-3.09 23.2-9.19 27.85-13.82 2.12-2.11 5.61-7.33 7.76-11.59s4.24-7.75 4.65-7.75 2.71 1.8 5.11 3.99l4.37 4-1.77 2.7c-1.52 2.31-1.78 5.29-1.87 20.95l-.1 18.26 2.5-1.59c3.72-2.36 11.01-8.18 15.14-12.07l3.64-3.43 1.06 3.34c.58 1.84 1.37 5.08 1.74 7.19.65 3.69.46 4.05-4.87 9-3.06 2.84-8.18 6.7-11.38 8.57l-7.87 4.64c-1.55.93-2.68 4.03-4.75 13.08l-.23.99c-2.13 9.33-2.8 12.27-2 12.75.37.22 1.05-.08 2.04-.52a2.29 2.29 0 0 0 .23-.1c5.83-2.55 17.32-10.01 22.21-14.41 2.82-2.53 5.31-4.4 5.55-4.16.83.82-1.72 8.35-4.79 14.15-8.35 15.78-32.36 29.06-59.85 33.11zm-7.58-.94c17.67-2.06 27.15-4.47 34.21-8.7 1.65-.99 3.85-1.79 4.9-1.8 2.27 0 10.46-5.32 17.65-11.45 4.71-4.02 10.95-12.86 10.95-15.51 0-1.33-3.69-1.36-4.5-.03-.63 1-12.08 8.68-16.18 10.84-3.21 1.69-6.39 1.49-5.68-.35.31-.83.14-1.5-.38-1.5-.55 0-.22-3.54.77-8.25l2.39-12c.43-2.39 1.22-3.75 2.18-3.75.84 0 1.26-.41.95-.92-.74-1.2 2.33-4.27 3.53-3.53.51.31.92.09.92-.49s.43-1.06.96-1.06c2.5 0 17.04-11.62 17.04-13.62 0-.76.45-1.38 1-1.38 1.1 0 1.34-3.94.39-6.42-.93-2.43-4.08-1.88-7.13 1.23-1.52 1.55-4.36 3.79-6.33 4.97-1.96 1.19-4.39 3.07-5.4 4.19-2.5 2.76-3.17 2.57-3.91-1.13-.83-4.16-.9-34.47-.08-38.4.41-2 .17-3.43-.7-4.15-1.83-1.5-5.29-2.02-5.33-.79-.1 2.34-9.64 15.52-12.21 16.84-1.54.8-3.66 2.4-4.71 3.56-1.04 1.15-2.56 2.1-3.38 2.1-.81 0-2.94.91-4.73 2.01-1.8 1.11-5.07 2.13-7.27 2.25-2.2.13-3.82.54-3.6.91.23.37-1.28 1.27-3.35 2-5.07 1.79-41.07 1.79-46.76-.01-2.2-.7-9.62-2.83-16.5-4.74-12.01-3.34-15.91-4.65-28-9.38-3.03-1.19-6.18-2.31-7.02-2.5-.83-.18-4.4-1.51-7.92-2.94s-6.8-2.6-7.27-2.6c-.48 0-3.73-1.33-7.21-2.96-3.49-1.63-8.08-3.61-10.21-4.39l-13.44-4.93c-10.37-3.8-13.44-3.87-18.18-.37-3.01 2.22-3.54 3.65-1.34 3.65 2.3 0 1.22 4.21-2.75 10.74-4.99 8.22-5.96 8.92-10.18 7.39-1.87-.68-4.37-1.42-5.57-1.65s-2.91-1.04-3.8-1.8c-.88-.76-2.4-1.66-3.36-2s-1.75-1.53-1.75-2.65-.63-2.03-1.39-2.03c-2.66 0-19.12 8.92-20.67 11.2-.86 1.27-3.24 6.35-5.29 11.3s-4.16 9.78-4.69 10.74c-2.09 3.76-1.18 5.47 3.29 6.18 7.02 1.11 24.44 7.05 35.25 12.02l12.21 5.66c3.41 1.59 6.42 2.9 6.68 2.9 1.11 0 14.35 6.44 16.86 8.2 1.51 1.07 2.75 1.73 2.75 1.47 0-.25 3.71 1.52 8.25 3.93s10.73 5.56 13.75 7c6.99 3.33 10.85 5.24 14 6.93 8.21 4.39 17.15 8.3 21.5 9.4 2.75.7 6.64 1.88 8.64 2.62 5.53 2.05 19.79 5.45 22.85 5.45 1.49 0 4.05.47 5.68 1.04 2.78.96 19.49 2.49 30.84 2.82 2.75.08 10.75-.53 17.78-1.36zm-5.08-92.97c9.95-1.32 14.79-2.7 14.79-4.23 0-.34-1.07-2.46-2.39-4.71-1.31-2.25-3.61-7.01-5.09-10.59-1.49-3.58-3.57-7.43-4.62-8.56-1.04-1.14-1.9-2.45-1.9-2.9 0-1.75-5.23-11.44-7.08-13.12-2.35-2.12-13.71-3.93-34.29-5.47-15.64-1.16-19.63-.85-19.63 1.55 0 1.48 9.76 21.59 10.93 22.5.35.28 1.9 3.76 3.44 7.75s3.18 7.25 3.64 7.25 1.33 1.51 1.94 3.35c1.34 4.05 4.65 7.31 8.05 7.93 5.48.99 22.08.6 32.21-.75zM581 732v15h-14v-47h18.75c15.86 0 19.29.27 22.23 1.75 5.26 2.65 8.02 7.46 8.02 14.02 0 4.99-.33 5.79-3.75 9.19-2.06 2.05-4.37 3.93-5.13 4.18-.97.31.65 3.12 5.28 9.19l6.67 8.75-8.76-.29-8.76-.29-9.57-14.5zm-119.5.5v14l-6.75.3-6.75.29V700h18.43c10.64 0 19.63.45 21.25 1.07 6.68 2.53 10.01 8.82 8.84 16.67-.68 4.52-3.58 8.54-7.91 10.94-1.74.97-1.41 1.68 4.25 9.22 3.38 4.49 6.14 8.39 6.14 8.67s-3.71.38-8.25.22l-8.25-.29-4.96-7.29-4.96-7.3-5.54.3zm275.16-338.75l11.95-20.72c1.59-3 3.47-6.09 4.18-6.86.72-.77 2.62-4.02 4.23-7.21 1.62-3.2 3.36-6.08 3.88-6.4s1.23-1.88 1.58-3.47c.35-1.58 1.51-3.67 2.58-4.64s1.94-2.99 1.94-4.5c0-2.46-.43-2.8-4.25-3.33-36.77-5.12-110.94-5.69-141.47-1.1-1.23.19-5.95.63-10.5.98-4.56.35-11.47 1.31-15.37 2.14-3.9.82-9.06 1.35-11.46 1.18-4.24-.31-4.42-.46-6.12-5.23-.96-2.7-1.53-5.26-1.27-5.68 0-.01 0-.01.01-.02l2.37 4.36c3.29 6.13 3.42 6.19 9.56 4.78 7.57-1.74 48.04-5.94 68.5-7.1 29.47-1.69 72.41-.16 101.96 3.61l12.25 1.46c1.62 0 .61 2.2-6.56 14.2l-33.28 56.54c-1.62 2.96-3.52 5.17-4.37 5.1-.83-.07-7.12-1.59-14-3.36-20.58-5.33-36.59-6.99-66.5-6.91-29.32.09-49.7 1.92-75.4 6.78-5.33 1.01-7.35 1.06-8.06.2-.53-.63-3.85-7.2-7.38-14.6l-22.67-46.45-44.99-93-12.88-26.8c-5.02-10.33-9.12-19.22-9.12-19.75 0-.59 16.85-.95 44.27-.95h44.27l13.44 26.25 29.49 57.92c8.83 17.42 17.29 33.05 18.79 34.74 1.51 1.69 2.74 3.27 2.74 3.51s-2.59.72-5.75 1.06-6.74.83-7.95 1.08c-1.98.41-3.25-1.61-12.35-19.55C587.38 301 582.46 292 582.03 292c-.56 0-1.17.44-2.26 1.9a35.43 35.43 0 0 1 .91-1.22c1.52-1.94 2.31-2.29 3.17-1.43.63.63 1.15 1.58 1.15 2.11 0 .52 1.12 2.43 2.5 4.23s2.5 3.93 2.5 4.72c0 .8.6 1.94 1.34 2.55.73.61 1.93 2.92 2.66 5.14s1.93 4.53 2.66 5.14c.74.61 1.34 1.68 1.34 2.39 0 2.18 5.22 11.47 6.44 11.47.64 0 1.69-.53 2.34-1.18.91-.91 1.76-.87 3.7.17 1.38.74 2.77 1.09 3.08.78.53-.52-6.12-14.78-12.25-26.27l-3.45-6.5-8.14-15.5c-2.93-5.53-6.72-14.19-6.72-15.35 0-.63-.41-1.15-.9-1.15-.79 0-3.81-5.81-11.98-23-4.21-8.87-13.16-25.38-14.62-27-.83-.91-1.5-2.41-1.5-3.34 0-1.34-.87-1.64-4.25-1.51-2.34.1-20.22.14-39.75.09h-3.64c-33.73-.08-36.07-.08-36.57.87-.06.11-.09.23-.14.35-.46 1.21 4.9 13.33 6.87 15.54.73.82 1.36 1.84 1.39 2.25.17 2.45 1.44 5.75 2.2 5.75.49 0 .89.51.89 1.14s1.98 5.24 4.39 10.25l8.07 17.11c3.85 8.36 4.21 9.11 6.74 14 4.85 9.36 11.8 24.35 11.8 25.43 0 .69.85 2.46 1.88 3.92 1.04 1.46 4.22 7.6 7.08 13.65l8.3 17c.89 1.65 2.7 5.25 4.01 8 1.32 2.75 2.92 5.9 3.55 7s3.63 7.32 6.66 13.81c3.03 6.5 6.18 12.5 7.01 13.32.83.83 1.51 2.23 1.51 3.11s1.5 4.33 3.34 7.68c1.83 3.34 3.64 7.2 4.01 8.58s1.96 3.99 3.53 5.8l2.85 3.3 15.38-2.51c24.6-4.01 38.69-5.1 64.89-5 29.18.11 46.14 1.96 72.5 7.89 3.3.74 6.7 1.39 7.55 1.44.97.05 4.92-5.6 10.61-15.17zM287 732.5V747h-6.33c-3.49 0-6.64-.3-7-.67-.37-.36-.67-10.94-.67-23.5V700h14.92l23.58 25.71.56-25.71H326v47l-11.5-.1-13-14.41c-7.15-7.92-13.34-14.43-13.75-14.45s-.75 6.49-.75 14.46zm236.08.88l-.58 13.12-6.54.29c-3.6.16-6.86-.03-7.25-.42-.39-.38-.71-10.98-.71-23.54V700l18.75.02c17.62.01 18.99.15 22.75 2.28 5.19 2.93 7 6.68 6.98 14.4-.02 7.56-2.01 10.76-8.79 14.16-3.96 1.98-6.3 2.38-14.66 2.44zm54.27 9.78c1.13-1.24 1.48-2.78 1.08-4.75-.31-1.6-.1-4.15.47-5.66.94-2.47 1.54-2.75 5.83-2.75 4.51.01 11.27 2.85 11.27 4.75 0 .42 1.07 1.92 2.38 3.33 1.3 1.41 2.68 3.55 3.06 4.74.56 1.74 1.47 2.18 4.55 2.18 4.43 0 7.01-.8 7.01-2.17 0-.98-4.07-6.75-7.25-10.27-2.41-2.67-2.28-3.05 2.06-6.17 3.58-2.57 7.22-8.87 7.17-12.4-.01-.82-.9-2.61-1.98-3.99s-1.97-2.97-1.98-3.53c-.01-.57-1.48-1.92-3.27-3-2.83-1.71-5.49-2.01-20.42-2.3-16.74-.32-17.2-.28-18.33 1.83-1.73 3.22-.97 38.13.87 40.35 1.82 2.19 5.42 2.1 7.48-.19zm-119.59 1.01c.71-.45 1.32-2.97 1.38-5.74.18-7.88.3-8.05 5.98-8.31 8.11-.37 10.14.46 12.25 5.01 3.24 6.99 13.89 12.82 14.83 8.12.3-1.5-1.13-4.04-6.69-11.85-.73-1.02-.3-2.04 1.64-3.84 1.45-1.34 2.9-2.18 3.21-1.86.32.32 1.02-.57 1.55-1.96.53-1.4 1.44-2.84 2.03-3.2 1.93-1.2 1.25-10.03-1-12.89-1.13-1.43-2.37-2.52-2.75-2.41s-2.02-.68-3.64-1.77c-2.6-1.73-5.06-2.01-20.25-2.32l-17.3-.35v20.52c0 11.28.27 21.23.61 22.1.64 1.69 5.91 2.17 8.15.75zm-194.65-7.12l-.61 9.45-21.06.27c-11.59.15-21.38-.04-21.75-.42-.38-.37-.69-10.96-.69-23.52V700h44v10h-30v8h26v10h-26.11l.61 8.5zm427.6 8.01c-3.61 2.05-5.72 2.42-14.71 2.6-11 .22-11.54.16-19.37-2.34l-4.86-1.56.47-4.9c.26-2.7.71-5.14 1-5.43s3.39.48 6.89 1.71c7.5 2.64 19.58 3.18 22.22.99 4.1-3.4.53-5.99-11.63-8.45-8.99-1.81-15.62-5.11-17.43-8.68-3.25-6.44-.25-14.45 6.76-18.03 7.73-3.94 25.02-3.57 33.31.71 2.66 1.38 2.84 1.83 2.38 5.96-.28 2.45-.69 4.64-.92 4.87-.22.22-3.24-.47-6.7-1.55-7.93-2.47-18.31-2.63-20.62-.32-2.67 2.67.03 4.26 12.64 7.46 9.91 2.51 11.78 3.33 14.61 6.38 2.57 2.76 3.25 4.35 3.25 7.6 0 5.92-2.41 10.22-7.29 12.98zm106.78.44c-3.04 1.52-6.25 2.04-13.49 2.18-9.99.18-10.66.1-18.25-2.32l-4.75-1.52v-5.54c0-5.24.12-5.5 2.25-4.95l10.12 2.71c8.89 2.41 15.97 2.04 17.56-.92 1.84-3.44-.99-5.16-12.58-7.64-11.02-2.36-15.47-4.96-17.26-10.09-1.74-5.02-.96-8.35 3.02-12.88 5.09-5.81 15.49-7.86 28-5.53 10.12 1.89 10.89 2.5 10.89 8.62 0 2.96-.34 5.37-.75 5.35s-3.22-.91-6.25-1.97c-6.31-2.22-18.9-2.7-20.8-.8-3.13 3.13.24 5.02 14.67 8.2 4.05.9 8.67 2.56 10.26 3.69 8.72 6.21 7.34 18.4-2.64 23.41zm-276.69-6.25c.17-2.89.76-5.25 1.31-5.25s.73-.45.39-1a3.16 3.16 0 0 0-.18-.27c-.15-.21-.26-.37-.23-.5.1-.46 1.91-.55 9.91-1.21 15.45-1.27 20.31-3.32 21.58-9.07 1.73-7.82 1.63-9.66-.7-13.22-4.27-6.51-6.42-7.17-24.73-7.57-10.61-.24-16.71 0-17.4.69-1.54 1.54-1.2 39.9.37 41.8.79.94 2.64 1.34 5.29 1.15l4.09-.3zm92.2-97.16c0-.6-.67-1.09-1.5-1.09-2.22 0-1.9-1.37 2.41-10.35 2.16-4.48 4.22-9.17 4.58-10.43 1.04-3.57 4.34-4.98 13.51-5.75 4.67-.4 11.65-1.74 15.5-2.98 11.17-3.61 13.25-3.88 15.17-1.97 1.57 1.58 1.54 2.24-.5 10.44-1.19 4.81-2.18 9.6-2.19 10.64-.04 2.89-3.13 6.11-6.48 6.74-4.58.87-11.51 2.42-16.5 3.71-6.46 1.66-24 2.43-24 1.04zM283.56 743.58c1.73-1.27 1.94-2.7 1.94-13.45 0-7.57.42-12.44 1.13-13.15.83-.84 3.73 1.48 11.25 8.99 5.56 5.57 10.12 10.47 10.12 10.88 0 1.9 6.98 7.27 10.11 7.78 5.54.9 5.99-.97 5.67-23.62l-.28-19.49-4.26-.29c-3.85-.27-4.36-.03-5.3 2.43-.6 1.58-.79 5.87-.45 10.11.73 9.07-.83 14.65-3.66 13.14-.99-.53-2.47-2.24-3.27-3.79s-2.66-3.61-4.13-4.58c-1.47-.96-2.37-1.25-1.99-.64.37.6.45 1.1.17 1.1-.29 0-1.26-1.57-2.17-3.49-.92-1.93-3.19-4.84-5.05-6.47-1.86-1.64-3.39-3.35-3.39-3.79 0-.45-1.31-1.59-2.9-2.53-3.76-2.22-10.66-2.3-11.49-.14-1.21 3.14-.68 39.95.59 41.22 1.62 1.62 4.99 1.51 7.36-.22zM769 655.49c0 .28-16.31.48-36.25.44l-36.25-.08 5.24-1.86c9.36-3.33 27.49-12.99 39.56-21.08 6.49-4.35 12-7.91 12.24-7.91.46 0 15.46 29.58 15.46 30.49zM366 710v37h-14l-.12-17.75.04-18.6c.08-.47-3.58-.7-8.14-.5l-8.28.35-.3-5.25-.3-5.25H384v10zm246.5-69c1.44 2.33 40.77-3.87 43.8-6.9.62-.62 6.48-21.54 6.68-23.85.06-.71-4.38-.11-6.13.83-2.79 1.49-24.05 5.92-28.42 5.92-1.96 0-4.37.43-5.35.96-2.09 1.12-11.49 21.57-10.58 23.04zm14.17-34.67c-1.24-1.23-.68-5.25 1.31-9.55 1.09-2.36 2.43-6.11 2.99-8.35 1.32-5.32 4.64-8.34 9.71-8.82 2.23-.22 5.8-1.3 7.93-2.41 2.14-1.12 6.49-3.25 9.66-4.74 3.18-1.5 5.99-3.07 6.25-3.5.27-.42 1.43-.53 2.58-.22 2.04.53 2.08.9 1.39 12.65-.39 6.66-1.18 12.69-1.76 13.41-1.45 1.79-9.15 5.2-11.74 5.2-1.17 0-3.08.51-4.25 1.14-1.73.92-20.68 5.78-22.82 5.84-.32.01-.89-.28-1.25-.65zm68.67-78.9c-2.84-2.51-8.24-6.69-12-9.29-4.71-3.26-6.74-5.28-6.53-6.49.16-.96 2.68-5.44 5.59-9.95 5.41-8.39 8.6-12 8.6-9.75 0 .75.59.6 1.61-.41 1.47-1.48 1.86-1.36 4.75 1.52 1.73 1.72 4.57 4.09 6.32 5.28 14.6 9.9 16.5 12.8 12.04 18.33-1.25 1.56-3.51 4.67-5.02 6.91-3.92 5.84-6.52 8.42-8.49 8.42-.94-.01-4.03-2.06-6.87-4.57zM582 640.35c-9.13-1.38-19.18-3.87-20.09-4.96-1.39-1.68-.55-4.16 2.68-7.89 1.43-1.65 3.28-4.35 4.12-6s2.56-4.38 3.82-6.06c2.21-2.96 2.47-3.04 7.63-2.32l14.34 1.86c10.53 1.32 13.5 2.34 13.5 4.68 0 2.2-7.5 17.7-9.56 19.76-1.53 1.52-9.52 1.98-16.44.93zm105.6 103.61c6.82-3.11 10.31-10.52 7.46-15.85-1.89-3.53-8.64-6.86-18.56-9.17-5.5-1.27-10.5-2.99-11.11-3.8-1.37-1.82-.67-5.22 1.43-6.89 2.13-1.71 15.63-1.53 20.68.26 3.43 1.22 4.19 1.23 5.4.02s1.2-1.74-.11-3.73c-1.97-3-8.77-4.8-18.18-4.8-9.28 0-15.55 2.55-19.1 7.78-3.02 4.43-3.09 5.75-.55 9.93 3.01 4.92 7.6 6.84 23.63 9.85 3.08.58 7.41 4.32 7.41 6.4 0 2.04-3.15 4.39-7.25 5.4-1.52.37-7.25-.03-12.74-.91-5.49-.87-10.44-1.3-11-.96-3.18 1.97 2.07 7.05 8.03 7.77 10.2 1.24 20.14.71 24.56-1.3zm-426.79-2.13c.29-2.55.05-2.7-5.36-3.38-3.12-.39-9.37-.41-13.9-.04-6.19.5-8.49.35-9.26-.62-1.64-2.07-2.17-6.96-1.03-9.47 1.02-2.22 1.53-2.32 12.15-2.34 6.1 0 11.6-.34 12.21-.75.73-.47.83-1.54.29-2.98-.81-2.15-1.36-2.25-11.82-2.25-10.21 0-11.09-.16-12.53-2.22-2.01-2.87-1.98-5.66.09-7.95 1.44-1.59 3.32-1.83 14.08-1.83 10.07 0 12.72-.3 14.02-1.61 1.19-1.19 1.34-2.03.57-3.25-.89-1.4-3.58-1.68-18.58-1.91-15.27-.24-17.77-.06-19.21 1.39-1.46 1.45-1.63 4.03-1.41 20.21.23 16.45.46 18.75 2.09 20.38 1.67 1.67 3.49 1.81 19.56 1.56l17.73-.27zm466.41-129.17c-2.22-1.23-2.3-1.76-2.62-18.34l-.33-17.08 3.42-1.63c1.88-.89 3.16-2.05 2.84-2.57s.29-1.41 1.36-1.98c1.08-.58 2.55-1.63 3.28-2.34s2.94-2.51 4.91-3.99c2.92-2.21 3.85-2.48 5.07-1.47 1.83 1.52 3.57 10.26 4.43 22.24l.04.58c.31 4.32.48 6.7-.3 8.7-1 2.56-3.55 4.51-9.32 9.08-10.34 8.19-10.79 8.6-10.32 9.39.58 1 .24.91-2.46-.59zm65.28 131.8c7.7-2.24 10.5-5.42 10.5-11.92 0-7.81-3.05-10.16-17-13.08-11.4-2.38-14.21-3.84-13.81-7.17.17-1.42 1.45-3.44 2.84-4.47 2.41-1.79 3.02-1.81 12.33-.42 10.87 1.64 12.89 1.35 12.44-1.78-.8-5.63-23.26-7.59-31.14-2.72-5.24 3.24-7.79 8.52-6.3 13.07 1.53 4.65 5.74 7.26 15.23 9.41 4.35.99 9.49 2.54 11.41 3.46 3 1.43 3.5 2.15 3.5 5.12 0 3.23-.29 3.54-4.5 4.76-3.84 1.11-5.77 1.06-13.2-.37-7.06-1.36-9-1.43-10.23-.41-2.99 2.48 1.27 6.2 8.43 7.38 5.85.96 14.56.57 19.5-.86zM650.17 503.5c-6.78-2.34-12.85-4.78-13.48-5.41-.88-.88-.76-1.82.51-3.88.92-1.49 3.03-5.44 4.69-8.77 4.8-9.6 5.42-9.94 14.78-7.96 4.31.92 8.73 2.04 9.83 2.5s4.14 1.38 6.75 2.06c2.61.67 4.81 1.72 4.88 2.34.45 4.03-.31 7.17-2.42 9.94-1.33 1.75-3.18 4.67-4.11 6.48-2.27 4.4-5.2 7.23-7.35 7.08-.96-.07-7.3-2.04-14.08-4.38zm-92.2-128.03c-1.08-1.15-1.97-2.47-1.97-2.93 0-.45-2.34-5.74-5.19-11.76-4.6-9.68-5.05-11.17-3.89-13.03.72-1.15 3.09-5.5 5.27-9.67 3.72-7.13 7-11.01 9.33-11.06.56-.01 2.54 2.79 4.4 6.23 1.87 3.44 4.69 8.21 6.27 10.61 3.1 4.68 4.3 11.49 2.38 13.45-1.28 1.29-9.08 16.11-9.94 18.88-.7 2.27-4.21 1.89-6.66-.72zm161.58 190.28c-.21-.69-.68-2.6-1.04-4.25-.37-1.65-2.52-6.8-4.78-11.43-2.6-5.32-3.7-8.58-2.98-8.82.63-.21.92-.94.66-1.63-.27-.69.66-2.48 2.05-3.99 1.4-1.5 2.54-3.18 2.54-3.72 0-1.26 8.98-10.91 10.15-10.91.48 0 1.51.79 2.29 1.75 5.08 6.23 8.45 11.4 9.48 14.51.65 1.97 1.74 4.04 2.42 4.61 2.05 1.7 1.97 7.83-.14 9.85-13.72 13.14-16.26 15.28-18.13 15.28-1.17 0-2.31-.56-2.52-1.25zM540 630.57c-9.63-3.94-17.73-8.42-18.4-10.18-.44-1.15.35-2.69 2.43-4.73 1.7-1.66 3.34-4.26 3.65-5.79.3-1.52 1.39-3.53 2.41-4.45 1.03-.93 1.58-2.15 1.23-2.71-.36-.58-.14-.71.53-.31.63.4 1.15.31 1.15-.18 0-1.77 8.54-1.24 12.5.78 2.16 1.1 4.7 2 5.65 2s2.01.45 2.35 1 1.94 1 3.56 1 3.85.91 4.96 2.02c2.23 2.23 2.03 2.92-2.45 8.92-1.41 1.9-2.57 3.82-2.57 4.28 0 1.07-5.18 9.06-6.49 10.01-1.65 1.21-4.68.73-10.51-1.66zM436.32 408.25c-2.01-3.16-5.11-7.47-6.89-9.56-3.51-4.15-4.93-7.68-3.09-7.71.69 0 .58-.38-.26-.91-1.21-.76-1.15-1.61.41-5.73 1-2.66 2.58-5.82 3.5-7.02.93-1.19 2.49-4.34 3.48-7 3.3-8.86 5.4-9.16 10.22-1.49l6.88 10.67c4.57 6.87 5.01 9.39 2.2 12.62-1.25 1.44-3.57 5.49-5.16 9l-3.92 8.63c-.56 1.24-1.65 2.25-2.42 2.25-.76 0-1.11.45-.77 1s.36 1 .05 1c-.32 0-2.22-2.59-4.23-5.75zm278.18-12.32c-5.91-1.71-16.04-3.89-18.18-3.91-1.2-.01-2.83-.67-3.63-1.47s-1.73-1.18-2.07-.84c-1.73 1.74-.3-3.72 1.79-6.79 1.32-1.95 3.06-5.09 3.86-6.98 2.68-6.34 4.42-7.15 12.84-5.95 6.84.97 16.27 2.54 21.64 3.6 3.51.7 2.8 4.45-2.62 14.01-5.27 9.27-6.91 10.27-13.63 8.33zm-101.49 99.05c-1.92-.46-6.51-1.13-10.21-1.5-3.69-.37-7.23-1.29-7.85-2.04-1.37-1.65-.3-7.37 1.51-8.06.7-.27 2.53-2.98 4.07-6.02 3.93-7.77 5.9-8.85 13.72-7.53 3.44.59 9.08 1.31 12.55 1.61 11.22.96 12.34 2.86 6.7 11.42-1.92 2.92-3.5 5.51-3.5 5.74 0 .24-1.01 1.99-2.25 3.9-2.04 3.15-2.67 3.47-6.75 3.39-2.47-.05-6.07-.46-7.99-.91zm85.93 33.4c1.35 1.46 2.92 2.51 3.5 2.32 1.45-.46 14.56-17.65 14.55-19.07-.03-2.42-22.04-18.63-25.31-18.63-.78 0-4.26 4.32-7.75 9.6-5.42 8.22-6.09 9.73-4.71 10.5 3.42 1.92 17.4 12.74 19.72 15.28zM604 606.94c-2.47-.44-6.97-.83-10-.87-8.36-.12-13-1.69-13-4.39 0-2.34 7.82-16.45 10.22-18.45 1.07-.88 4.75-.84 15.47.17 7.74.74 14.58 1.65 15.19 2.03 1.54.95 1.4 3.09-.29 4.49-.77.64-2.43 4.08-3.69 7.64-3.27 9.27-5.59 10.83-13.9 9.38zm-22 31.59c4.12.69 9.22 1.31 11.32 1.37l3.82.1 4.93-10.45c2.71-5.75 4.93-10.64 4.93-10.87s-3.26-.74-7.25-1.13c-3.99-.38-10.32-1.34-14.07-2.13-3.74-.78-7.6-1.42-8.56-1.42-1.12 0-3.93 3.52-7.93 9.93-3.4 5.46-6.19 10.16-6.19 10.43 0 .56 7.79 2.27 19 4.17zM419.49 446.34l-4.96-7.75c-1.08-1.7-2.75-3.94-3.7-4.98-2.89-3.14-3.15-6.99-.85-12.28 3.99-9.18 8.52-17.52 9.81-18.04 1.83-.76 4.36 1.83 10.16 10.42 5.87 8.7 6.45 12.37 3.03 19.23-1.22 2.45-2.29 4.97-2.38 5.6-.1.64-.94 2.34-1.89 3.77-.94 1.44-1.71 3.35-1.71 4.25 0 .89-.89 1.86-1.99 2.15-1.09.28-1.74.92-1.44 1.4.3.49.18.89-.27.89s-2.16-2.1-3.81-4.66zM542 337.12c0-.49-.8-1.1-1.78-1.35-2.07-.54-12.22-20.19-12.22-23.66 0-1.26.93-3.49 2.07-4.95 1.13-1.46 4.11-5.94 6.62-9.95 4.29-6.88 4.67-7.22 6.62-5.92 1.15.76 2.44 2.13 2.88 3.05.45.91 1.25 2.45 1.8 3.41l2.85 5.25 3.51 6.5c1.82 3.34 2.12 6.61.74 8.05-.88.92-2.86 4.4-8.66 15.2-2.58 4.79-4.43 6.62-4.43 4.37zm221 316.57c0-.44.42-.55.94-.23 1.58.98.8-3.8-1.06-6.52-.96-1.41-2.04-3.73-2.4-5.15-.35-1.43-1.44-3.44-2.4-4.47-.97-1.04-2.06-3.1-2.43-4.57-.37-1.48-1.61-3.19-2.76-3.81-1.7-.91-2.48-.73-4.3.97-1.22 1.15-2.67 2.09-3.22 2.09-.56 0-1.99 1.12-3.18 2.5-1.2 1.38-2.67 2.5-3.28 2.5-.6 0-4.12 2.03-7.81 4.5s-7.44 4.5-8.34 4.5-1.92.46-2.27 1.01c-.34.56-2.4 1.92-4.56 3.02-2.16 1.11-3.93 2.62-3.93 3.37 0 1.1 4.66 1.33 25.5 1.22 14.02-.06 25.5-.48 25.5-.93zM627.35 603.7c-.64 1.47 3.72.95 15.15-1.8 11.82-2.85 22.25-6.81 23-8.72.95-2.47 1.92-23.18 1.08-23.18-.4 0-2.6 1.26-4.9 2.81-5.68 3.81-15.31 7.95-20.43 8.77-2.32.37-4.68 1.23-5.25 1.92s-2.63 5.24-4.58 10.12l-4.07 10.08zM426.6 517.46c-.88-.89-2.98-3.6-4.65-6.03-1.68-2.44-3.39-4.43-3.82-4.43s-1.79-2.25-3.03-5l-2.26-4.99 4.48-9.26c2.46-5.09 4.76-10.49 5.1-12 .47-2.09 1.21-2.75 3.08-2.75 1.59 0 3.06.96 4.18 2.75.95 1.51 3.47 4.88 5.6 7.48 5.97 7.29 6.41 10.3 2.69 18.18-1.7 3.59-3.1 6.88-3.12 7.31-.07 1.65-3.26 6.15-4.02 5.67-.44-.27-.57.13-.27.9.29.76-.12 1.93-.91 2.58-1.13.95-1.78.86-3.05-.41zm307.95-151.37c-.31-.51-.07-1.08.53-1.28s-.86-.42-3.24-.47c-5.59-.14-12.54-.88-16.34-1.75-6.51-1.48-10.5-2.69-10.5-3.19 0-1.19 6.28-13.05 7.82-14.77 1.52-1.69 2.69-1.81 12.18-1.2 15.2.96 21.9 2.04 23.67 3.82 1.42 1.42 1.23 2.1-2.05 7.43-1.99 3.22-3.62 6.33-3.62 6.92 0 1.59-4.41 5.4-6.26 5.4-.89 0-1.88-.41-2.19-.91zM524.46 587.11c-2.76-.99-6.06-2.36-7.31-3.03s-3.23-1.4-4.39-1.63c-1.16-.22-2.37-.76-2.69-1.2-.31-.44-1.8-1.58-3.29-2.53-2.4-1.52-2.61-2.05-1.72-4.38.56-1.46 2.34-4.63 3.97-7.05 1.64-2.41 2.97-4.79 2.97-5.28 0-2.36 7.99-3.64 11.29-1.81 1.22.68 5.28 2.22 9.04 3.43s7.67 2.96 8.69 3.89c2.27 2.05 1.62 4.17-3.52 11.48-1.97 2.81-4.01 6.21-4.52 7.55-1.1 2.9-1.89 2.95-8.52.56zM364.08 740.75c.76-2.76.97-8.74.61-17.07-.51-11.95-.41-12.96 1.48-14.85 1.69-1.69 2.78-1.91 6.52-1.35 5.17.77 8.46-1.19 7.58-4.54-.48-1.85-1.56-1.94-22.39-1.94H336v2.35c0 1.28.86 3.12 1.9 4.06 1.68 1.52 2.42 1.57 6.08.48 2.75-.83 4.41-.91 4.85-.25.37.55 1.46 1.3 2.42 1.65 1.55.57 1.76 2.28 1.83 14.93.11 20.28.25 20.78 5.85 20.78 3.85 0 4.03-.15 5.15-4.25zM633.83 464.5c-.27-.28-5.41-.99-11.41-1.58-6.01-.6-11.22-1.39-11.58-1.75-.36-.37.99-4.12 3-8.34 5.12-10.74 6.21-11.27 20.43-9.86 11.54 1.14 18.29 2.5 19.12 3.85.95 1.54-8.47 16.26-11.02 17.23-2.67 1.01-7.71 1.28-8.54.45zm92.67 131.09c0 9.02.13 16.41.29 16.41 1 .01 12.57-9.1 17-13.38l5.3-5.12-.66-8c-.68-8.31-2.79-20.2-3.77-21.17-.31-.31-4.52 2.91-9.36 7.15l-8.8 7.71zm-63.73-206.37c-12.44-.25-13.83-.46-14.77-2.23-.82-1.53-.55-2.77 1.26-5.72 1.28-2.07 3.42-5.9 4.76-8.49 2.21-4.26 2.87-4.79 6.74-5.37 5.51-.83 25.36.49 26.96 1.79.92.75.11 3.14-3.32 9.89-2.49 4.9-5.29 9.25-6.22 9.66-.92.41-7.86.62-15.41.47zM652 502.12c7.42 2.5 13.78 4.28 14.13 3.96 1.23-1.13 11.87-18.16 11.87-18.99 0-1.47-23.47-9.09-27.98-9.09-1.35 0-12.85 18.71-11.89 19.33.2.14 6.45 2.29 13.87 4.79zM541.32 264.28c-.36-.98-2.6-5.25-4.99-9.5-2.38-4.24-4.33-8.53-4.33-9.53 0-2.01 3.11-8.55 5.29-11.12.76-.9 1.96-3.09 2.66-4.87.71-1.78 1.63-3.02 2.05-2.76s1.32-.87 2.01-2.51c2.01-4.88 4.52-3.86 8.09 3.26 1.72 3.44 3.79 7.01 4.61 7.94 2.83 3.21 1.84 7.84-3.58 16.72-2.82 4.62-5.13 9-5.13 9.72 0 .73-1.36 2.02-3.02 2.88-2.8 1.45-3.06 1.43-3.66-.23zm13.25 99.86c3.62 7.22 6.94 12.72 7.4 12.24.45-.48 3.6-6.14 6.98-12.56l6.16-11.69-2.39-3.81c-1.32-2.1-4.32-7.53-6.67-12.07s-4.59-8.25-4.98-8.25c-.38 0-1.42 1.51-2.3 3.36s-3.67 6.58-6.19 10.51-4.58 7.6-4.58 8.15c0 .56 2.96 6.91 6.57 14.12zm165.47 195.62c1.07 2.99 1.53 4.79 2.49 5.11 1.21.41 3.21-1.52 8.19-6.34l2.03-1.96c4.41-4.25 7.24-7.79 7.23-9.03-.01-1.12-.92-4.01-2.01-6.42C735.48 535.63 727.13 523 726 523c-.47 0-3.97 4.15-7.79 9.21l-6.94 9.22 3.27 6.03c1.79 3.32 4.27 8.86 5.5 12.3zM641 700v47h-14v-47zM433.75 401.68c3.71 5.61 6.87 10.22 7.03 10.26.63.14 12.26-25.44 12-26.4-.38-1.41-14.03-21.63-14.37-21.29-.77.77-11.41 25.08-11.41 26.07 0 .64 3.04 5.75 6.75 11.36zm102 224.57c6.46 2.56 12.27 4.68 12.91 4.7 1.11.05 13.98-19.75 13.21-20.31-1.62-1.18-26.5-8.41-27.02-7.85-1.21 1.27-10.85 17.33-10.85 18.08 0 .39 5.29 2.82 11.75 5.38zM491.36 573c-1.73-.38-4.65-1.61-6.5-2.73-1.85-1.11-5.72-2.79-8.61-3.73-6.19-2-6.75-4.05-2.75-9.94 1.38-2.03 2.5-4.31 2.5-5.07s1.16-2.76 2.59-4.45c2.95-3.51 4.44-3.45 13.1.53 2.85 1.32 5.92 2.39 6.81 2.39 2.45 0 5.32 1.8 6.55 4.1.19.34.34.62.43.92.43 1.52-.92 3.54-9.62 16.64l-.36.55c-.73 1.09-1.86 1.31-4.14.79zM710 392.97l1.13.27c5.41 1.31 7.94 1.93 9.8 1.07 1.77-.81 2.93-2.95 5.37-7.07 5.98-10.12 6.26-10.94 4.02-11.58-5.04-1.45-18.49-3.67-23.64-3.9l-5.82-.26-4.83 8.7-4.84 8.7 5.66 1.13c3.11.62 9.03 1.94 13.15 2.94zm-101 99.8l14.57 2.11c.58.07 2.11-1.79 3.4-4.13 1.28-2.34 3.91-6.84 5.83-10.02 1.93-3.17 3.28-5.99 3-6.26-.7-.71-27.05-3.24-28.47-2.73-1.25.44-12.79 18.15-12.19 18.7.2.18 6.44 1.23 13.86 2.33zm54.65-135.18c-1.46-2.23-1.43-2.59.39-4.91 1.08-1.37 1.96-3.18 1.96-4.01s1.16-2.9 2.59-4.59c2.45-2.91 2.98-3.08 9.75-3.07 19.61.01 26.81 1.69 23.64 5.51-.58.7-1.24 2.24-1.47 3.42s-1.82 3.93-3.55 6.1l-3.13 3.96h-14.3c-14.01 0-14.33-.05-15.88-2.41zM470.5 597.72c-1.1-.67-5.15-2.36-8.99-3.76-4.55-1.65-7.11-3.14-7.33-4.27-.19-.96 1.27-4.17 3.24-7.14 1.97-2.96 3.58-5.8 3.58-6.3 0-.49 1.08-1.91 2.39-3.15l2.4-2.25 4.29 2.08c2.36 1.14 5.3 2.07 6.54 2.07 1.23 0 3.02.79 3.99 1.75.96.96 1.89 1.63 2.07 1.48s1.47.02 2.87.37c2.18.55 2.46 1.07 2.05 3.71-.27 1.69-1.86 5.03-3.54 7.41-1.68 2.39-3.06 4.71-3.06 5.15 0 1.63-3.71 4.13-6.08 4.1-1.33-.02-3.32-.58-4.42-1.25zm68.88-264.97c1.87 3.64 3.09 4.09 4.07 1.5.36-.96 3.11-5.81 6.1-10.77l5.45-9.02-5.75-11.22c-3.16-6.17-6.05-11.22-6.43-11.23-.37-.01-3.63 4.74-7.24 10.55l-6.57 10.56 4.35 8.19 6.02 11.44zM608 605.47c3.31.66 4.01.44 5.42-1.72 1.09-1.68 7.58-17.39 7.58-18.35 0-.09-1.99.07-4.42.34-2.43.28-8.84-.02-14.25-.67-7.96-.94-9.98-.92-10.61.13-6.75 11.24-9.51 16.33-9.17 16.88.23.37 5.71 1.22 12.18 1.88l13.27 1.51zM416.71 438.95c3.69 5.45 7.03 9.71 7.41 9.48 1.06-.66 9.88-21.97 9.88-23.88 0-1.83-11.84-20.55-13-20.55-.7 0-11.05 22.79-11.02 24.27.01.43 3.04 5.23 6.73 10.68zm151.58 52.31l-8.21-.34-.62-3.28c-.49-2.61.09-4.46 2.88-9.21 5.19-8.8 7.31-10.75 10.92-10.03 1.64.33 6.76.6 11.36.6 6.88 0 8.38.28 8.38 1.54 0 1.62-3.48 9.01-5.33 11.31-.59.74-1.18 2.03-1.3 2.86-.31 2.06-4.46 6.35-5.52 5.7-.47-.29-.85-.05-.85.53s-.79.97-1.75.86c-.96-.12-5.45-.36-9.96-.54zM399.33 544.1c-3.19-2.98-3.66-5.59-1.76-9.82l3.45-7.78c6.57-14.95 6.99-15.71 8.47-15.14.83.32 1.51.07 1.51-.54s1.11.41 2.47 2.28c10.73 14.79 11.31 16.56 7.32 22.25-2.72 3.87-4.8 5.58-6.85 5.62-.86.02-2.5.9-3.64 1.96-3.27 3.06-8.37 3.6-10.97 1.17zm361.18 36.27c-1.14-1.14-1.51-2.61-1.14-4.48.31-1.54.17-4.05-.3-5.59s-1.39-5.39-2.04-8.55c-.64-3.16-1.86-6.44-2.71-7.29-1.42-1.42-1.43-3.5-.01-9.28.45-1.81 8.73-12.1 10.57-13.13 2.05-1.15 3.41.57 4.88 6.21 2.32 8.9 1.14 22.9-2.98 35.48-2.46 7.5-3.88 9.01-6.27 6.63zM422.3 508.75c3.24 4.54 6.19 8.24 6.55 8.22.36-.01 2.99-5.49 5.86-12.17l5.21-12.16-6.68-9.33c-3.68-5.13-7.06-9.2-7.53-9.05-1.46.49-10.8 23.79-10.03 25.04.4.66 3.38 4.91 6.62 9.45zm148.41-114.52c-.95-1.05-1.71-3.5-1.71-5.51 0-4.68 4.97-12.24 8.66-13.17 6.51-1.64 23.76-4.41 24.51-3.95 1.55.97.84 4.11-2.68 11.72-3.87 8.37-3.68 8.25-16.51 10.54-3.04.54-6.66 1.27-8.05 1.62-1.78.45-3.02.08-4.22-1.25zm160.79-30.84c2.75.76 5.62 1.32 6.37 1.25 1.77-.18 10.57-15.63 9.47-16.62-.91-.82-21.38-3.02-28.1-3.02-4.06 0-4.23.14-8.12 6.75-2.18 3.71-3.66 7.03-3.29 7.38.37.34 4.72 1.13 9.67 1.75s11.25 1.75 14 2.51zm-97.5 99c7.24 1.05 8.65 1.02 9.5-.2 3.64-5.24 5.97-9.11 7.13-11.85l1.32-3.17-6.72-1.05c-3.7-.58-10.62-1.34-15.38-1.7l-8.65-.64-4.53 7.82c-2.5 4.29-4.31 8.17-4.04 8.61.27.43 3.27.82 6.68.87 3.4.04 10.02.63 14.69 1.31zM517.76 582.07c5.91 2.59 11.23 4.76 11.84 4.82 1.53.16 11.79-16.91 10.75-17.9-1.59-1.52-23.25-9.17-24.24-8.56-1.56.97-10.27 15.74-9.65 16.37.31.31 5.4 2.68 11.3 5.27zm-77.15 3.77c-1.04-.6-3.11-1.19-4.6-1.31-2.48-.19-4.35-1.22-10.11-5.53-1.9-1.43-1.92-1.69-.43-5 .87-1.93 2.85-5.74 4.4-8.49 2.43-4.32 3.27-5.02 6.26-5.25 1.96-.15 5.14.6 7.37 1.74 2.16 1.1 4.63 2 5.49 2 2.49 0 6.01 2.94 6.01 5.01 0 1.05-1.01 3.44-2.25 5.32-1.24 1.87-3.48 5.49-4.98 8.04-2.81 4.79-3.95 5.34-7.16 3.47zm181.14-225.39c-1.19-1.24-.88-3.65.69-5.38.79-.87 1.65-2.81 1.92-4.29.27-1.49 1.62-3.92 2.99-5.41 2.2-2.36 3.35-2.72 9.33-2.91l13.74-.51c8.23-.35 8.89.69 5.02 7.96-1.34 2.51-2.44 5.13-2.44 5.81 0 2.89-4.59 4.15-17.5 4.83-7.15.37-13.34.32-13.75-.1zm-39.44 6.85c-.66-.24-.92-1.15-.58-2.03.4-1.06.22-1.36-.56-.88-1.36.85-.49-1.65 2.76-7.85 1.14-2.18 2.07-4.53 2.07-5.22 0-2.22 3.95-3.46 16.59-5.22 16.01-2.22 16.81-1.61 11.32 8.63-1.71 3.17-3.44 6.13-3.86 6.58-.81.85-10.09 2.93-18.55 4.16-2.75.4-5.67 1.07-6.5 1.49s-2.04.58-2.69.34zm78.94 19.95l14.25.53c1.55.16 3.09-1.72 6.85-8.35 2.67-4.71 4.62-8.79 4.33-9.08s-6.97-.6-14.85-.69l-14.33-.16-4.22 8c-2.31 4.4-4.23 8.32-4.25 8.72-.01.39 5.48.86 12.22 1.03zM431.37 743.14c1.01-1.11 1.41-2.55 1.01-3.6-.61-1.58-1.94-1.71-13.01-1.33-6.78.24-12.72.17-13.2-.14s-1.17-2.52-1.54-4.91c-.59-3.75-.46-4.36 1.28-4.84l.28 3.93.31 4.25 29.5.55V747h-43v-47h43v10h-30v8h26v10h-25.07c.75-.31.69-.63-.1-1.12-.77-.5 3.11-.86 9.3-.86 8.21-.02 10.91-.36 11.87-1.52.99-1.2.99-1.8 0-3-.96-1.15-3.6-1.5-11.5-1.5-10.65 0-12.49-.68-13.19-4.85-.37-2.27 1.68-7.13 3.06-7.24.62-.05 6.7-.16 13.51-.25 10.2-.13 12.57-.45 13.41-1.77.57-.89.75-2.35.4-3.25-.55-1.43-2.88-1.64-18.58-1.64-9.87 0-18.66.27-19.53.61-1.37.52-1.58 3.28-1.58 20.47v19.86l2.75 1.49c2.08 1.13 6.42 1.5 17.85 1.53 13.46.04 15.27-.16 16.77-1.82zm107.27-487.71c4.03 8.34 4.8 9.37 5.83 7.84 4.41-6.58 12.53-21.23 12.53-22.61 0-2.3-8.27-17.63-9.5-17.59-1.2.03-13.5 19.56-13.5 21.44 0 .72 2.09 5.63 4.64 10.92zm99.9 488.51c.89-1.45 1.82-37.35 1.05-40.45-.56-2.23-1.14-2.49-5.5-2.49-3.52 0-5.04.44-5.48 1.58-.83 2.16-.78 40.92.06 41.75 1.08 1.09 9.15.76 9.87-.39zm106.89.08c2.94-1.11 3.47-4.46.88-5.46-.94-.35-7.04-.58-13.56-.49-6.52.08-12.08-.07-12.35-.34-.28-.27-.57-2.29-.66-4.48-.25-6.35 1.39-7.25 13.12-7.25 9.11 0 10.06-.18 10.64-1.99.34-1.1.35-2.45.01-3-.36-.57-5.06-1.02-10.82-1.03-5.6 0-10.66-.34-11.23-.75-.37-.26-.68-.91-.9-1.73l13.19.28 13.25.28V728h-26.11l.61 8.5 14.15.28 14.15.27.44 4.23c.25 2.32.27 4.56.05 4.97-.23.41-10.06.75-21.85.75H707v-47h43v9.95l-14.75.27-14.23.27c.89-.55.84-.96-.16-1.6-.81-.51 3.41-.87 10.32-.87 13.51-.02 17.11-.95 16.64-4.27-.32-2.24-.36-2.25-19.82-2.25h-19.5l-.27 21.75-.27 21.75h17.46c9.6 0 18.6-.44 20.01-.98zM483 567.47c5.77 2.37 10.79 4.14 11.14 3.93.99-.59 9.86-15.05 9.86-16.07 0-.73-6.74-3.69-20.2-8.85-1.1-.42-2.9 1.61-6.41 7.22-2.69 4.29-4.89 8.17-4.89 8.63 0 .45 4.73 2.76 10.5 5.14zm54.87-75.93c-.35-.35-2.82-1.18-5.5-1.84-6.06-1.49-6.55-3.42-2.76-10.86 4.21-8.27 5.22-8.79 17.14-8.82 8.55-.02 10.25.23 10.25 1.51 0 1.87-7.46 15.29-9.88 17.75-1.79 1.84-8.13 3.39-9.25 2.26zM674 430.51c0 .59-.34.56-10.71-1.06-4.51-.7-8.69-1.58-9.28-1.94-1.09-.68-11.39-20.56-10.82-20.91.17-.11 4.75-.01 10.18.2l9.86.4 5.39 11.41c2.96 6.28 5.38 11.64 5.38 11.9zM473 597c2.75 1.78 3.72 1.05 8.87-6.81 5.39-8.21 5.82-9.19 4.02-9.19-.62 0-5.21-1.81-10.2-4.03-5-2.22-9.61-3.83-10.25-3.59-1.18.46-9.87 15.55-9.27 16.1.18.16 3.71 1.7 7.83 3.42s8.17 3.56 9 4.1zm-73.25-54.47c.96 1.32 2.13 2.42 2.6 2.44.46.02 4.3-1.77 8.53-3.97 6.98-3.63 7.84-4.41 9.36-8.51l1.67-4.51-5.26-7.67c-2.9-4.23-5.72-7.83-6.27-8.02-.98-.32-12.38 24.2-12.38 26.63 0 .66.79 2.29 1.75 3.61zm163-53.25c1.51.23 6.23.49 10.49.57l7.73.15 2.37-3.75c1.3-2.06 3.82-6.34 5.61-9.5l3.24-5.75h-23.01l-4.59 7.95c-2.53 4.38-4.59 8.4-4.59 8.94s1.24 1.16 2.75 1.39zm101.27-132c-.01.42 6.8.65 15.14.5l15.16-.28 3.46-6.3c1.9-3.46 3.19-6.56 2.88-6.88-.32-.32-6.98-.63-14.8-.7l-14.22-.12-3.8 6.5c-2.09 3.58-3.81 6.85-3.82 7.28zM551.48 463.97c-.46-.75-2.15-1.01-4.48-.7-2.91.39-4.13.06-5.44-1.48-1.62-1.88-1.57-2.17.87-5.69 1.41-2.04 2.57-4.18 2.57-4.75 0-1.51 3.11-3.96 6-4.73 4.91-1.31 19.75-1.84 20.43-.73.37.59-.48 2.76-1.88 4.82-1.4 2.07-2.55 4.29-2.55 4.95 0 2.21-4.97 7.11-7.74 7.63-1.52.29-3.72.83-4.9 1.2-1.27.41-2.43.2-2.88-.52zm20.58-71.86c.65 1.22 1.71 1.78 2.75 1.46.93-.28 5.64-1.14 10.47-1.91s8.89-1.57 9.01-1.78c.73-1.24 7.71-15.97 7.71-16.26 0-.4-1.25-.24-14.66 1.98-5.59.92-10.6 1.95-11.12 2.29-1.36.88-5.22 8.73-5.22 10.64 0 .88.48 2.49 1.06 3.58zM435.5 581.84c4.4 1.69 8.23 3.1 8.5 3.11.4.02 8.75-13.62 9.78-16 .16-.36-3.8-2.36-8.8-4.46-7.79-3.26-9.28-3.61-10.44-2.4-2.3 2.4-8.58 15.28-7.79 15.99.41.37 4.35 2.06 8.75 3.76zm325.49-6.59c.01 2.61.4 4.75.87 4.75 1.23 0 4.79-9.73 6.21-16.96 1.33-6.73.79-27.58-.75-29.12-.55-.55-3.37 1.82-7.1 5.99l-6.19 6.92 1.5 3.59c2.39 5.72 5.46 19.65 5.46 24.83zM623 359.44c0 .5 12.2-.09 21.5-1.03l5-.51 3.78-7.1 3.79-7.1-9.19.65c-5.05.36-11.14.65-13.52.65h-4.33l-3.52 6.98c-1.93 3.83-3.51 7.19-3.51 7.46zm-41 5.41c0 .43 3.94-.02 8.75-.99 4.81-.98 10.33-1.81 12.25-1.84 4.84-.07 5.64-.78 9.53-8.37l3.41-6.65h-3.43c-4.75 0-18.56 1.95-21.12 2.98-1.83.74-9.39 12.71-9.39 14.87zM460.49 723.66c-.81-2.49-1.16-13.58-.46-14.7.92-1.5 11.18-2.08 16.47-.93 5.13 1.11 7.87 4.36 7.07 8.37-.95 4.74-3.19 6.42-9.42 7.07l-9.46.97c-2.34.24-3.97-.07-4.2-.78zm61.72-.2c-.87-.99-1.2-3.84-1-8.71l.29-7.25 3.5-.33c11.75-1.12 19.38 2.8 18.8 9.65-.45 5.45-5.06 8.19-13.7 8.14-4.51-.02-7.01-.5-7.89-1.5zm57.69-.74c-1.26-.96-1.51-2.52-1.15-7.22.25-3.3 1.03-6.46 1.74-7.03.7-.56 4.75-.94 8.99-.83 7.97.19 10.97 1.65 13.64 6.6 1.37 2.55-1.45 6.28-6.2 8.18-4.66 1.86-14.73 2.04-17.02.3zm-46.63-234.64c2.33.39 6.24.65 8.7.57l4.48-.15 4.68-8.5 4.68-8.5-3.15-.28c-1.74-.16-6.28.06-10.09.5l-6.92.78-3.78 6.97c-2.07 3.83-3.56 7.18-3.3 7.43.26.26 2.37.79 4.7 1.18zm-96.02 39.26c-1.64-.66-1.58-3.34.14-6.94l5.07-10.65c2.03-4.26 4.02-7.75 4.44-7.75 1.75 0 11.1 12.55 11.1 14.89 0 1.97-3.84 4.87-10.78 8.15-6.24 2.95-7.59 3.26-9.97 2.3zM542 461.46c0 .52 17.53-.34 19.62-.96 1.25-.38 8.8-13.41 8.14-14.07-.44-.44-14.2 1.11-19.04 2.15-2.15.46-3.45 1.92-5.75 6.48-1.63 3.23-2.97 6.12-2.97 6.4zm125.76-34.29c.97-.62 1.01-1.59.17-4.24-1.5-4.7-5.19-12.28-6.38-13.12-1.31-.93-13.49-2.21-14.2-1.49-.79.79 2.63 9.42 4.28 10.79.75.62 1.37 2.2 1.37 3.49 0 1.76.7 2.52 2.75 2.97a61.86 61.86 0 0 1 5.25 1.44c3.28 1.09 5.22 1.14 6.76.16zM508.84 485.3c-5.02-2.06-5.23-4.17-1.04-10.19l3.56-5.11h6.82c8.72 0 9.04 1.1 3.22 11.03-3.88 6.63-5.49 7.18-12.56 4.27zm72.91 237.14c1.12 1.15 12.51.02 15.85-1.57 3.03-1.45 4.35-5.94 2.56-8.69-1.13-1.72-7.31-3.13-13.91-3.16L581 709v6.33c0 3.49.34 6.68.75 7.11zM462 710v13.29l7.68-.65c9.11-.77 12.32-2.48 12.32-6.59 0-4.94-2.12-6.05-11.57-6.05zm61 0v13h7.5c8.44 0 11.5-1.77 11.5-6.67 0-4.95-2.42-6.33-11.15-6.33zm-85.48-182.97c.48.77 16.43-6.85 18.73-8.95.96-.88-7.43-14.19-8.68-13.77-1.36.45-10.73 21.63-10.05 22.72zm-51.77-2.51c-1.51-1.33-2.75-3.03-2.75-3.78 0-1.3-4.98-8.7-7.86-11.7-.93-.95-1.03-1.58-.31-1.82.64-.21.85-1.55.52-3.24-.39-1.92.08-3.97 1.4-6.18 1.1-1.81 2.26-4.77 2.6-6.56.33-1.79 1.45-4.49 2.48-6a137.06 137.06 0 0 0 3.62-5.6l1.74-2.87 4.36 4.87c2.4 2.67 4.38 5.41 4.41 6.08.02.66 1.35 2.7 2.95 4.53 3.26 3.71 4.94 10.02 3.22 12.1-.61.73-1.73 3.1-2.5 5.27-.76 2.17-2.8 6.97-4.53 10.66-2.04 4.37-3.38 6.4-5.02 6.57.56-.68 3.23-6.5 6.2-13.54l5.79-13.69-2.9-4.06-7.23-10.38-4.32-6.33-1.69 3.33c-.93 1.82-3.6 7.93-5.93 13.56l-4.24 10.24 6.87 10.43c3.55 5.4 6.7 9.9 7.29 10.45-1.13.03-2.42-.8-4.17-2.34zM563.5 600c-.34-.55-1.79-1-3.23-1-2.35 0-13.44-3.78-17.27-5.89-2.74-1.5-2.2-4.08 2.37-11.38 5.55-8.85 7.76-11.64 9.06-11.41.55.1 2.13 1.19 3.52 2.43s3.66 2.25 5.04 2.25c2.36-.01 10.69 2.36 14.01 3.97.87.42 1.42 1.31 1.65 2.45-.64-.25-4.11-1.3-8.15-2.47-4.4-1.28-9.99-3.15-12.41-4.17-2.43-1.02-4.76-1.5-5.17-1.07-.41.44-3.06 4.61-5.88 9.28-3.53 5.85-4.72 8.62-3.83 8.92.71.24 6.01 1.9 11.79 3.69s11.37 3.18 12.43 3.08c1.29-.12 3.54-2.98 6.76-8.59 2.31-4.02 4.16-7.48 4.51-8.39.35 2.2-.36 5.25-2.1 7.93-6.68 10.35-7.59 11.37-10.03 11.37-1.35 0-2.73-.45-3.07-1zm-196.57-41.25c-1.41-1.79-3.42-4.71-4.46-6.5-1.05-1.79-2.25-3.25-2.69-3.25-1.74 0-.64-8.74 1.7-13.5 1.35-2.75 2.47-5.82 2.49-6.82.06-3.36 4.87-10.36 7.01-10.2 2.12.16 3.52 1.16 3.52 2.53 0 .88 4.42 7.17 8.28 11.77 3.54 4.24 3.66 6.59.75 15.73-2 6.27-3.4 8.96-5.37 10.32-3.89 2.69-6.08 3.29-7.78 2.09.55.06 1.84-.67 4.67-2.45 2.87-1.82 4.67-4.03 6.37-7.89 4.25-9.6 4.2-10.28-1.25-17.85-2.68-3.72-5.72-8.33-6.75-10.25-1.03-1.91-2.11-3.48-2.4-3.48-.62.01-11.02 24.28-11.02 25.73 0 .56 2.25 4.1 5 7.87s5 7.2 5 7.63c0 .18.02.33.06.44-1.11-.89-1.26-.86-.69.08 1.37 2.28.16 1.29-2.44-2zm-20.68 12.75c-1.61-1.82-1.58-3.45.08-5.42.73-.87 2.12-3.72 3.08-6.33 2.4-6.5 4.82-6.48 9.43.08 3.5 4.98 2.38 7.66-4.49 10.69l-.04.02c-4.38 1.94-5.77 2.55-6.73 2.15-.45-.18-.81-.59-1.33-1.19zm330.25-97.34c-2.75-.99-8.3-2.66-12.33-3.7-9.31-2.4-10.1-3.68-6.58-10.69 4.48-8.96 7.26-12.04 10.28-11.43 8.53 1.72 12.11 2.74 16.13 4.57 2.47 1.12 5.31 2.06 6.3 2.07 3.03.04 7.7 2.97 7.64 4.8-.04.94-2.18 4.87-4.77 8.72-3.39 5.03-4.62 6.52-6.6 7.02l4.78-7.24c2.66-4.03 4.6-7.97 4.3-8.74-.56-1.46-19.53-8.02-26.39-9.11l-3.95-.64-4.78 8.15c-2.62 4.48-4.61 8.28-4.4 8.44.2.16 5.09 1.54 10.87 3.07 5.78 1.52 12.53 3.54 15 4.47l4.36 1.64c-.42.09-.87.14-1.38.18-1.91.13-5.73-.58-8.48-1.58zM520.58 300.13c-3.66-5.92-10.58-20.68-10.58-22.56 0-1.36 1.57-5.08 3.5-8.27 1.92-3.19 3.5-6.08 3.5-6.42 0-1.43 4.52-5.73 6.94-7.02l-6.38 10.34-6.84 11.07 5.87 11.36c3.23 6.26 6.14 11.37 6.46 11.37s1.38-1.69 2.35-3.75c.98-2.06 3.29-6.04 5.14-8.85 2.94-4.45 4.51-6.65 4.71-8.98.21-2.5-1.2-5.14-4.25-10.88l-.71-1.32-5.66-10.66c.24-.07.44-.09.58-.03.84.32 2.79 3.14 4.35 6.27 1.56 3.14 3.87 7.38 5.14 9.43 3.12 5.06 2.94 9.07-.6 13.58-1.59 2.03-3.2 4.7-3.57 5.94-.36 1.24-1.02 2.25-1.45 2.25-.42 0-1.55 1.71-2.49 3.79-1.58 3.52-4.8 5.3-6.01 3.34zm88.52 88.97l-.38-.39c.84.14 2.34.12 4.03-.08 2.61-.3 8.62-.83 13.35-1.17l8.6-.61 4.15-7.43c2.28-4.08 4.15-7.91 4.15-8.51 0-.76-3.68-.88-12.25-.42-6.74.37-12.95.86-13.8 1.09-1.3.36-8.23 13.21-8.91 16.35-1.42-1.84-1.19-3.3.53-7.03 5.16-11.23 5.78-11.58 21.68-12.24 10.67-.45 12.75-.3 12.75.9 0 .79.44 1.44.97 1.44.54 0-.14 2.09-1.5 4.65s-2.47 5.19-2.47 5.85c0 .67-1.21 2.51-2.68 4.1-2.42 2.62-3.5 2.96-11.25 3.57-4.71.37-9.99.98-11.72 1.35-2.46.53-3.61.22-5.25-1.42zm-98.85 94.41c1.79.78 3.95 1.43 4.82 1.45.86.02 3.43-2.88 5.71-6.46l4.14-6.5H511.4l-2.2 4.53c-1.21 2.49-2.2 4.76-2.2 5.05 0 .28 1.46 1.15 3.25 1.93zm1.14 131.93c1.12-1.11 3.17-3.91 5.2-7.19 2.63-4.26 5.12-7.98 5.52-8.26 2.5-1.74.38-3.41-10.11-7.97-6.33-2.75-11.95-5-12.5-4.99-1.09.02-11.33 15.09-11.5 16.91-.2-.19-.33-.35-.37-.47-.37-.95.21-2.73 1.37-4.19 1.1-1.4 2-3.1 2-3.77s1.6-3.31 3.55-5.87c4.18-5.48 7.98-6.2 11.91-2.27 1.31 1.31 4.09 2.7 6.19 3.09 2.1.4 4.72 1.22 5.83 1.83s2.91 1.26 4 1.44 2.32.67 2.74 1.09c.91.91-1.97 6.86-5.69 11.73-1.46 1.91-2.83 4.43-3.06 5.6-.5 2.62-.35 2.5-3.97 3.19-.35.07-.72.11-1.11.1zM586.88 462c-9.51 0-10.88-.07-10.7-1.46 1.42.63 11.27.57 17.38-.17l5.07-.6 4.2-7.54c2.31-4.15 3.99-7.74 3.74-8-.26-.25-5.37-.13-11.37.26l-10.92.71-4.14 7.28c-1.64 2.89-3.07 5.54-3.74 6.93.1-.82-.1-1.41-.51-1.41-1.22 0 4.68-11.32 6.9-13.25 1.94-1.7 22.21-3.21 22.21-1.66 0 .5.67.91 1.5.91 1.68 0 2.04 2.55.5 3.5-.55.34-1 1.42-1 2.41 0 .98-.9 2.82-2 4.09s-2 2.69-2 3.15c0 .47-.9 1.75-2 2.85-1.76 1.76-3.33 2-13.12 2zM453.1 368.67c-1.71-2.99-3.78-5.99-4.61-6.68-.82-.68-1.49-1.82-1.49-2.54 0-.71-1.06-2.57-2.36-4.12-3.28-3.93-4.02-6.77-2.16-8.31.83-.7 1.52-1.66 1.52-2.15 0-.73 6.29-14.64 10.23-22.62.74-1.5 1.52-2.24 2.4-2.2l-3.57 8.48-6.42 14.75c-1.45 3.18-2.64 6.38-2.64 7.13 0 .74 3.42 6.39 7.61 12.56 3.35 4.93 6.43 8.9 7.75 10.06-2.16 1.86-3.69.14-6.26-4.36zM347 571.14c0 .68 11.26-4.28 12.79-5.63.44-.38-5.2-9.44-5.89-9.48-.65-.03-6.9 13.66-6.9 15.11zm57.73-85.99c-1.62-1.9-4.1-5.44-6.39-8.95 1.53 2.22 3.36 4.78 5.46 7.64 3.15 4.31 3.61 3.81 9.6-10.56 4.43-10.63 4.6-11.38 3.19-14-2.6-4.89-11.13-16.57-12.13-16.63-.53-.03-3.51 5.07-6.62 11.32-1.28 2.56-2.28 4.63-3.03 6.32 2.89-6.81 7.96-16.88 9.43-18.09 1.38-1.13 2.38-.19 7.71 7.31 7.54 10.61 8.04 12.69 4.76 19.66-1.39 2.93-3.29 7.7-4.23 10.6-2.22 6.79-4.94 8.69-7.75 5.38zm92.25-10.19c-1.68-3.15-.4-8.4 2.41-9.9 1.4-.75 2.21-1.94 1.98-2.91-.45-1.91 3.54-9.3 5.34-9.89 2.13-.7 2.73 4.72.87 7.87-.93 1.58-1.45 2.87-1.15 2.87.87 0-5.3 11.65-6.86 12.94-.86.72-1.37.78-1.96.03.91-.37 2.9-3.93 6.17-10.97 4.63-9.98 5.44-13.38 2.29-9.58-1.79 2.16-9.07 17.53-9.07 19.15 0 .17 0 .32.01.45l-.03-.06zm239.96 11.44c-1.34-3.43-24.33-20.4-27.81-20.4-.96 0-2.12.85-3.7 2.79.86-1.1 1.63-2.01 2.22-2.58l2.35-2.3 6.75 4.1c12.69 7.69 20.25 14.41 20.25 18 0 .1-.02.23-.06.39zM457.12 320.15c1.31.46 2.82 2.52 4.69 6.26 1.75 3.53 3.19 7.11 3.19 7.95s.41 1.78.92 2.09c1.72 1.06 6.08 9.79 6.08 12.18 0 .32-.16.92-.44 1.74l-7.18-15.01zm118.73-43.18l-5.5-10.63c-3.22-6.22-6.07-11.31-6.35-11.31-.53 0-1.08.3-1.75 1 1.62-2.17 2.75-3.09 2.75-1.97 0 .58.56.73 1.25.34.69-.4.94-.37.55.05-.69.77 4.25 10.54 6.93 13.7.77.9 1.65 4.12 1.96 7.15.07.62.12 1.17.16 1.67zm-59.93 184.39c-1.16-2.18-.98-2.71 1.99-5.76 2.05-2.12 4.62-3.6 6.93-3.99 2.01-.33 4.56-.83 5.66-1.11 1.1-.27 2.77.1 3.71.83.25.2.46.38.64.57l-4.53.68c-8.16 1.22-9.59 1.91-12.01 5.72l-2.18 3.44c-.06-.12-.13-.25-.21-.38zm46.36-160.46c.68-.52 2.3-3.09 3.84-6.15 1.73-3.44 4.71-8.69 6.61-11.67l3.17-4.97c.06 2.99-.79 4.55-4.27 10.13-2.55 4.08-4.63 7.92-4.63 8.52 0 1.53-2.87 4.24-4.48 4.24-.07 0-.14-.03-.24-.1zM516.29 462h13.68l2.56-5.07 2.46-4.85c.66.84.54 1.83-.2 4.25-1.6 5.2-3.41 6.35-10.94 6.92-5.57.42-6.56.37-7.56-1.25zm-21.38-7.1c-.21.07-.52.31-.92.71-1 1-5.28 11.44-5.91 14.26-.88-2.5-.76-5.49.39-7.13.84-1.2 1.53-2.88 1.53-3.74s.72-2.58 1.59-3.83c1.18-1.68 1.92-1.99 2.87-1.2.21.17.36.49.45.93zm-6.21 16.35l-.18-.33c.82-.66 2.49-3.84 4.41-8.52 1.08-2.66 1.79-4.59 2.12-5.83-.02 3.66-1.55 10.02-3.44 12.91-1.76 2.68-2.24 2.97-2.91 1.77zm86.89-144.12c-1.29-1.49-3.87-6.46-5.39-10.13.6 1.39 1.39 2.98 2.25 4.5l3.14 5.63zM720.5 717.25c-.45-1.89-.48-4.56 0-5.95zm-17.26-245.46l-.72 1.07c-2.47 3.76-4.5 7.29-4.52 7.88 0-.91 2.59-5.17 5.24-8.95zm29 22.79c-2.29 3.33-4.73 6.39-5.63 6.71.75-.27 3.26-3.4 5.63-6.71zm-163.2-181.01a1.89 1.89 0 0 1-.04-.38c0-.49.53-1.78 1.38-3.51-.84 1.79-1.36 3.17-1.35 3.73 0 .05 0 .1.01.16zm-175.82 150.8c-.3 1.01-.41 1.77-.37 2.38a1.9 1.9 0 0 1-.1-.4c-.02-.34.15-1.03.47-1.98zM438 472.3l.96 1.32-1.41-1.91c-.7-.95-1.34-1.87-1.92-2.75l2.37 3.34zm136.38-169.94c1.23-2.08 2.51-4.18 3.7-6l-3.7 6zm-75.5 308.16l-2.08-1.09 1.95 1.01 4.76 2.36-4.63-2.28z" fill="#0d42a3"/><path d="M0 512V0h512 512v512 512H512 0V512zm690.71 233.06c4.88-2.76 7.29-7.06 7.29-12.98 0-3.25-.68-4.84-3.25-7.6-2.83-3.05-4.7-3.87-14.61-6.38-12.61-3.2-15.31-4.79-12.64-7.46 2.31-2.31 12.69-2.15 20.62.32 3.46 1.08 6.48 1.77 6.7 1.55.23-.23.64-2.42.92-4.87.46-4.13.28-4.58-2.38-5.96-8.29-4.28-25.58-4.65-33.31-.71-7.01 3.58-10.01 11.59-6.76 18.03 1.81 3.57 8.44 6.87 17.43 8.68 12.16 2.46 15.73 5.05 11.63 8.45-2.64 2.19-14.72 1.65-22.22-.99-3.5-1.23-6.6-2-6.89-1.71s-.74 2.73-1 5.43l-.47 4.9 4.86 1.56c7.83 2.5 8.37 2.56 19.37 2.34 8.99-.18 11.1-.55 14.71-2.6zm106.78.44c9.98-5.01 11.36-17.2 2.64-23.41-1.59-1.13-6.21-2.79-10.26-3.69-14.43-3.18-17.8-5.07-14.67-8.2 1.9-1.9 14.49-1.42 20.8.8 3.03 1.06 5.84 1.95 6.25 1.97s.75-2.39.75-5.35c0-6.12-.77-6.73-10.89-8.62-12.51-2.33-22.91-.28-28 5.53-3.98 4.53-4.76 7.86-3.02 12.88 1.79 5.13 6.24 7.73 17.26 10.09 11.59 2.48 14.42 4.2 12.58 7.64-1.59 2.96-8.67 3.33-17.56.92l-10.12-2.71c-2.13-.55-2.25-.29-2.25 4.95v5.54l4.75 1.52c7.59 2.42 8.26 2.5 18.25 2.32 7.24-.14 10.45-.66 13.49-2.18zm-534.69-3.72l.31-4.73-14.81-.27-14.8-.28-.31-4.25-.3-4.25h13.05H259v-5-5h-13-13v-4-4h15 15v-5-5h-22-22v22.83c0 12.56.31 23.15.69 23.52.37.38 10.16.57 21.75.42l21.06-.27.3-4.72zm24.2-9.28c0-7.97.34-14.48.75-14.46s6.6 6.53 13.75 14.45l13 14.41 5.75.05 5.75.05v-23.5V700h-6.97-6.97l-.28 12.85-.28 12.86-11.79-12.86L287.92 700h-7.46H273v22.83c0 12.56.3 23.14.67 23.5.36.37 3.51.67 7 .67H287v-14.5zm79-4V710h9 9v-5-5h-24.55-24.55l.3 5.25.3 5.25 8.28-.35c4.56-.2 8.22.03 8.14.5-.09.47-.1 8.84-.04 18.6L352 747h7 7v-18.5zm70 13.53v-4.98l-14.75-.27-14.75-.28-.31-4.25-.3-4.25h13.05H432v-5-5h-13-13v-4-4h15 15v-5-5h-21.5H393v23.5V747h21.5H436v-4.97zm25.5-2.53v-7l5.54-.29 5.54-.3 4.96 7.3 4.96 7.29 8.25.29c4.54.16 8.25.06 8.25-.22s-2.76-4.18-6.14-8.67c-5.66-7.54-5.99-8.25-4.25-9.22 4.33-2.4 7.23-6.42 7.91-10.94 1.17-7.85-2.16-14.14-8.84-16.67-1.62-.62-10.61-1.07-21.25-1.07H448v23.55 23.54l6.75-.29 6.75-.3v-7zm61.29.44l.29-6.56 9.95-.08c8.36-.06 10.7-.46 14.66-2.44 6.78-3.4 8.77-6.6 8.79-14.16.02-7.72-1.79-11.47-6.98-14.4-3.76-2.13-5.13-2.27-22.75-2.28L508 700v22.83c0 12.56.32 23.16.71 23.54.39.39 3.65.58 7.25.42l6.54-.29.29-6.56zm58.21-.44V732h5.49 5.49l4.78 7.25 4.79 7.25 8.76.29 8.76.29-6.67-8.75c-4.63-6.07-6.25-8.88-5.28-9.19.76-.25 3.07-2.13 5.13-4.18 3.42-3.4 3.75-4.2 3.75-9.19 0-6.56-2.76-11.37-8.02-14.02-2.94-1.48-6.37-1.75-22.23-1.75H567v23.5V747h7 7v-7.5zm60-16V700h-7-7v23.5V747h7 7v-23.5zm109.29 22.75c.22-.41.2-2.65-.05-4.97l-.44-4.23-14.15-.27-14.15-.28-.31-4.25-.3-4.25h13.05H747v-4.97-4.97l-13.25-.28-13.25-.28V714v-3.5l14.75-.28 14.75-.27v-4.98V700h-21.5H707v23.5V747h21.44c11.79 0 21.62-.34 21.85-.75zm-111.42-89.81c27.49-4.05 51.5-17.33 59.85-33.11 3.07-5.8 5.62-13.33 4.79-14.15-.24-.24-2.73 1.63-5.55 4.16-4.89 4.4-16.38 11.86-22.21 14.41-3.46 1.52-3.46 1.83-.04-13.12 2.07-9.05 3.2-12.15 4.75-13.08l7.87-4.64c3.2-1.87 8.32-5.73 11.38-8.57 5.33-4.95 5.52-5.31 4.87-9-.37-2.11-1.16-5.35-1.74-7.19l-1.06-3.34-3.64 3.43c-4.13 3.89-11.42 9.71-15.14 12.07l-2.5 1.59.1-18.26c.09-15.66.35-18.64 1.87-20.95l1.77-2.7-4.37-4c-2.4-2.19-4.7-3.99-5.11-3.99s-2.5 3.49-4.65 7.75-5.64 9.48-7.76 11.59c-4.65 4.63-16.94 10.73-27.85 13.82-11.46 3.25-30.69 3.25-46 .01-17.51-3.71-48-14.23-87.5-30.19-19.07-7.71-21.34-8.02-30.43-4.25-7.71 3.19-9.02 4.71-4.86 5.61 5.64 1.22 5.66 1.83.32 9.92l-5.01 7.6-7.51-3.26c-4.13-1.8-7.78-3.54-8.11-3.87s.67-2.27 2.22-4.3l2.83-3.71-2.48.73c-1.36.39-8.35 3.54-15.53 6.99l-13.06 6.26-1.84 4.9c-1.01 2.7-3.8 9.35-6.19 14.78-4.88 11.09-5.01 11.62-2.71 11.62 3.2 0 23.06 6.2 35.4 11.06 6.9 2.71 30.56 13.85 52.59 24.76 46.43 22.98 58.83 27.6 86.37 32.2 13.96 2.33 41.49 2.53 55.87.42zm45.63-2.63c14.71-3.63 32.88-12.03 49-22.65 12.8-8.43 30.26-25.64 36.9-36.38 21.23-34.34 17.77-70.22-10.14-105.26-13.47-16.91-31.52-31.4-51.84-41.6-38.57-19.37-101.73-23.33-164.77-10.31-29.5 6.08-35.69 6.52-43.19 3.02-7.86-3.66-12.44-10.53-12.45-18.7-.01-4.64 3.04-12.95 5.96-16.22 1.57-1.77 3.01-2.98 3.2-2.71.18.28 4.04 8.04 8.58 17.25 4.96 10.08 8.82 16.75 9.68 16.75.79 0 9-1.54 18.25-3.42l24.07-4.59c3.99-.64 7.25-1.3 7.25-1.46 0-.15-7.69-15.98-17.09-35.16l-84.14-173.62c-2.79-5.91-5.56-10.74-6.17-10.72-.6.02-7.5 14.53-15.32 32.25L419.43 292l-16.64 38-19.8 45-40.98 93-18.48 42L311 538.5c-.43 1.1-5.17 11.9-10.52 24l-34.06 77.72-6.42 15.25c0 .29 24.69.53 54.88.53 42.73 0 55.08-.28 55.82-1.25.52-.69 2.2-4.17 3.74-7.75l16.99-39.5c17.02-39.57 18.99-44.42 18.31-45.09-.97-.97-64.24 31.85-73.68 38.22-1.9 1.27-3.63 2.13-3.85 1.91-.23-.22.09-1.9.7-3.72.85-2.56 2.42-4.02 6.84-6.38l21.75-11.63c85.69-45.86 122.01-59.4 181.74-67.75 17.28-2.41 19.76-2.51 19.76-.76 0 .72 5.63 12.64 12.51 26.49 10.9 21.92 12.87 25.28 15.25 25.94 4.36 1.22 32.09.86 39.4-.51 3.66-.68 8.28-1.92 10.26-2.75l3.6-1.5-11.26-22.24-11.26-22.23-4-.71c-8.99-1.61-47.26-4.67-65.5-5.25-33.6-1.07-46.94-3.32-60-10.14-6.31-3.28-8.46-4.91-16.12-12.14l-3.62-3.42-5.18 9.6-5.17 9.6-3.45-4.27c-6.3-7.81-6.29-7.36-.58-19.31 2.82-5.89 5.12-11.22 5.12-11.84-.01-.62-1.12-3.82-2.48-7.12-1.88-4.55-2.48-7.84-2.5-13.62-.02-7.46-.13-7.79-5.1-15.41l-5.08-7.78 5.08-10.71c2.79-5.88 5.09-11.1 5.11-11.59s.65-1.7 1.4-2.7c1.27-1.66 1.64-1.37 4.72 3.72 1.84 3.04 3.84 5.55 4.43 5.56.6.02 2.56-1.8 4.35-4.04l3.27-4.07-4.6-6.92c-2.53-3.8-4.6-7.38-4.6-7.95 0-2.08 10.09-21.05 10.92-20.54.91.56 14.36 27.69 13.87 27.97-10.6 6.03-17.77 13.62-22.86 24.2-11.33 23.55-5.23 53.09 14.34 69.44 14.31 11.96 32.18 16.86 61.73 16.94 40.04.09 72.86 4.16 97.6 12.08 21.54 6.9 31.87 12.53 43.62 23.76C701.9 553.81 710 572.99 710 595.13c0 18.75-5.65 33.56-16.8 43.99-6.26 5.86-21.45 15.88-24.09 15.88-.61 0-1.11.41-1.11.9 0 1.2 6.6.36 16.5-2.09zm84.5 1.68c0-.91-15-30.49-15.46-30.49-.24 0-5.75 3.56-12.24 7.91-12.07 8.09-30.2 17.75-39.56 21.08l-5.24 1.86 36.25.08 36.25-.44zm-95-224.98c0-.26-2.42-5.62-5.38-11.9l-5.39-11.41-9.86-.4c-5.43-.21-10.01-.31-10.18-.2-.57.35 9.73 20.23 10.82 20.91.59.36 4.77 1.24 9.28 1.94 10.37 1.62 10.71 1.65 10.71 1.06zm57.37-23.77c2.87-5.23 19.36-33.26 33.28-56.54 7.17-12 8.18-14.2 6.56-14.2-.44 0-5.95-.66-12.25-1.46-29.55-3.77-72.49-5.3-101.96-3.61-20.46 1.16-60.93 5.36-68.5 7.1-6.14 1.41-6.27 1.35-9.56-4.78l-6.49-11.75c-1.87-3.3-3.41-6.94-3.42-8.09-.02-1.15 2.21-5.81 4.94-10.37 5.48-9.11 6.89-11.04 8.06-11.04.43 0 5.35 9 10.92 20.01 9.1 17.94 10.37 19.96 12.35 19.55 1.21-.25 4.79-.74 7.95-1.08s5.75-.82 5.75-1.06-1.23-1.82-2.74-3.51c-1.5-1.69-9.96-17.32-18.79-34.74l-29.49-57.92L554.54 207h-44.27c-27.42 0-44.27.36-44.27.95 0 .53 4.1 9.42 9.12 19.75L488 254.5l44.99 93 22.67 46.45c3.53 7.4 6.85 13.97 7.38 14.6.71.86 2.73.81 8.06-.2 25.7-4.86 46.08-6.69 75.4-6.78 29.91-.08 45.92 1.58 66.5 6.91 6.88 1.77 13.17 3.29 14 3.36.85.07 2.75-2.14 4.37-5.1zM462 716.65V710h8.43c9.45 0 11.57 1.11 11.57 6.05 0 4.11-3.21 5.82-12.32 6.59l-7.68.65v-6.64zm61-.15V710h7.85c8.73 0 11.15 1.38 11.15 6.33 0 4.9-3.06 6.67-11.5 6.67H523v-6.5zm58.75 5.94c-.41-.43-.75-3.62-.75-7.11V709l5.25.02c6.6.03 12.78 1.44 13.91 3.16 1.79 2.75.47 7.24-2.56 8.69-3.34 1.59-14.73 2.72-15.85 1.57zM612.5 641c-.91-1.47 8.49-21.92 10.58-23.04.98-.53 3.39-.96 5.35-.96 4.37 0 25.63-4.43 28.42-5.92 1.75-.94 6.19-1.54 6.13-.83-.2 2.31-6.06 23.23-6.68 23.85-3.03 3.03-42.36 9.23-43.8 6.9zm-30.5-2.47c-11.21-1.9-19-3.61-19-4.17 0-.27 2.79-4.97 6.19-10.43 4-6.41 6.81-9.93 7.93-9.93.96 0 4.82.64 8.56 1.42 3.75.79 10.08 1.75 14.07 2.13 3.99.39 7.25.9 7.25 1.13s-2.22 5.12-4.93 10.87L597.14 640l-3.82-.1c-2.1-.06-7.2-.68-11.32-1.37zm-46.25-12.28c-6.46-2.56-11.75-4.99-11.75-5.38 0-.75 9.64-16.81 10.85-18.08.52-.56 25.4 6.67 27.02 7.85.77.56-12.1 20.36-13.21 20.31-.64-.02-6.45-2.14-12.91-4.7zm-37-15.81c-5.91-3-10.75-5.91-10.75-6.46 0-1.6 10.4-16.93 11.5-16.95.55-.01 6.17 2.24 12.5 4.99 10.49 4.56 12.61 6.23 10.11 7.97-.4.28-2.89 4-5.52 8.26-2.64 4.26-5.31 7.73-5.94 7.7s-5.99-2.51-11.9-5.51zM608 605.47c-.83-.17-6.79-.84-13.27-1.51-6.47-.66-11.95-1.51-12.18-1.88-.34-.55 2.42-5.64 9.17-16.88.63-1.05 2.65-1.07 10.61-.13 5.41.65 11.82.95 14.25.67 2.43-.27 4.42-.43 4.42-.34 0 .96-6.49 16.67-7.58 18.35-1.41 2.16-2.11 2.38-5.42 1.72zm19.35-1.77c.28-.66 2.12-5.19 4.07-10.08 1.95-4.88 4.01-9.43 4.58-10.12s2.93-1.55 5.25-1.92c5.12-.82 14.75-4.96 20.43-8.77 2.3-1.55 4.5-2.81 4.9-2.81.84 0-.13 20.71-1.08 23.18-.75 1.91-11.18 5.87-23 8.72-11.43 2.75-15.79 3.27-15.15 1.8zM555 595.6l-11.79-3.69c-.89-.3.3-3.07 3.83-8.92 2.82-4.67 5.47-8.84 5.88-9.28.41-.43 2.74.05 5.17 1.07 2.42 1.02 8.01 2.89 12.41 4.17l8.26 2.52c.14.12-1.92 4-4.57 8.62-3.22 5.61-5.47 8.47-6.76 8.59-1.06.1-6.65-1.29-12.43-3.08zm-82 1.4c-.83-.54-4.88-2.38-9-4.1s-7.65-3.26-7.83-3.42c-.6-.55 8.09-15.64 9.27-16.1.64-.24 5.25 1.37 10.25 3.59 4.99 2.22 9.58 4.03 10.2 4.03 1.8 0 1.37.98-4.02 9.19-5.15 7.86-6.12 8.59-8.87 6.81zm44.76-14.93c-5.9-2.59-10.99-4.96-11.3-5.27-.62-.63 8.09-15.4 9.65-16.37.99-.61 22.65 7.04 24.24 8.56 1.04.99-9.22 18.06-10.75 17.9-.61-.06-5.93-2.23-11.84-4.82zm-82.26-.23c-4.4-1.7-8.34-3.39-8.75-3.76-.79-.71 5.49-13.59 7.79-15.99 1.16-1.21 2.65-.86 10.44 2.4 5 2.1 8.96 4.1 8.8 4.46-1.03 2.38-9.38 16.02-9.78 16-.27-.01-4.1-1.42-8.5-3.11zm47.5-14.37c-5.77-2.38-10.5-4.69-10.5-5.14 0-.46 2.2-4.34 4.89-8.63 3.51-5.61 5.31-7.64 6.41-7.22 13.46 5.16 20.2 8.12 20.2 8.85 0 1.02-8.87 15.48-9.86 16.07-.35.21-5.37-1.56-11.14-3.93zm243.5 28.12v-16.4l8.8-7.71c4.84-4.24 9.05-7.46 9.36-7.15.98.97 3.09 12.86 3.77 21.17l.66 8-5.3 5.12c-4.43 4.28-16 13.39-17 13.38-.16 0-.29-7.39-.29-16.41zm34.49-20.34c0-5.18-3.07-19.11-5.46-24.83l-1.5-3.59 6.19-6.92c3.73-4.17 6.55-6.54 7.1-5.99 1.54 1.54 2.08 22.39.75 29.12-1.42 7.23-4.98 16.96-6.21 16.96-.47 0-.86-2.14-.87-4.75zM347 571.14c0-1.45 6.25-15.14 6.9-15.11.69.04 6.33 9.1 5.89 9.48-1.53 1.35-12.79 6.31-12.79 5.63zm373.04-11.38c-1.23-3.44-3.71-8.98-5.5-12.3l-3.27-6.03 6.94-9.22c3.82-5.06 7.32-9.21 7.79-9.21 1.13 0 9.48 12.63 11.97 18.12 1.09 2.41 2 5.3 2.01 6.42.01 1.24-2.82 4.78-7.23 9.03-11.08 10.67-10.12 10.43-12.71 3.19zm-350.04.47c0-.43-2.25-3.86-5-7.63s-5-7.31-5-7.87c0-1.45 10.4-25.72 11.02-25.73.29 0 1.37 1.57 2.4 3.48 1.03 1.92 4.07 6.53 6.75 10.25 5.45 7.57 5.5 8.25 1.25 17.85-1.7 3.86-3.5 6.07-6.37 7.89-4.29 2.71-5.05 2.97-5.05 1.76zm29.75-17.7c-.96-1.32-1.75-2.95-1.75-3.61 0-2.43 11.4-26.95 12.38-26.63.55.19 3.37 3.79 6.27 8.02l5.26 7.67-1.67 4.51c-1.52 4.1-2.38 4.88-9.36 8.51-4.23 2.2-8.07 3.99-8.53 3.97-.47-.02-1.64-1.12-2.6-2.44zm347.5-9.78c-.55-.69-1.73-2.69-2.62-4.44s-3.87-6.17-6.63-9.81l-5.01-6.62 5.74-7.94c3.16-4.37 6.46-7.94 7.34-7.94 1.88 0 12.93 13.37 12.93 15.64 0 .3.93 1.86 2.07 3.45 1.14 1.61 1.81 3.69 1.5 4.66-.67 2.08-12.14 14.25-13.43 14.25-.49 0-1.34-.56-1.89-1.25zm-48.31-4.37c-2.32-2.54-16.3-13.36-19.72-15.28-1.38-.77-.71-2.28 4.71-10.5 3.49-5.28 6.97-9.6 7.75-9.6 3.27 0 25.28 16.21 25.31 18.63.01 1.42-13.1 18.61-14.55 19.07-.58.19-2.15-.86-3.5-2.32zm-261.42-1.35c-.68-1.09 8.69-22.27 10.05-22.72 1.25-.42 9.64 12.89 8.68 13.77-2.3 2.1-18.25 9.72-18.73 8.95zm-54.89-10.62l-6.87-10.43 4.24-10.24c2.33-5.63 5-11.74 5.93-13.56l1.69-3.33 4.32 6.33 7.23 10.38 2.9 4.06-5.79 13.69c-3.18 7.52-6.01 13.65-6.28 13.61s-3.59-4.77-7.37-10.51zm39.67-7.66l-6.62-9.45c-.77-1.25 8.57-24.55 10.03-25.04.47-.15 3.85 3.92 7.53 9.05l6.68 9.33-5.21 12.16c-2.87 6.68-5.5 12.16-5.86 12.17-.36.02-3.31-3.68-6.55-8.22zm229.7-6.63l-13.87-4.79c-.96-.62 10.54-19.33 11.89-19.33 4.51 0 27.98 7.62 27.98 9.09 0 .83-10.64 17.86-11.87 18.99-.35.32-6.71-1.46-14.13-3.96zm66.69-6.2c-3.75-3.17-9.93-7.65-13.75-9.96-3.82-2.3-6.94-4.65-6.94-5.21s2.03-4.11 4.52-7.89c3.2-4.85 5.13-6.86 6.61-6.86 3.58 0 27.87 18.01 27.87 20.67 0 1.61-8.86 14.07-10.39 14.62-.61.22-4.17-2.2-7.92-5.37zM609 492.77c-7.42-1.1-13.66-2.15-13.86-2.33-.6-.55 10.94-18.26 12.19-18.7 1.42-.51 27.77 2.02 28.47 2.73.28.27-1.07 3.09-3 6.26-1.92 3.18-4.55 7.68-5.83 10.02-1.29 2.34-2.82 4.2-3.4 4.13-.59-.06-7.15-1.01-14.57-2.11zm-46.25-3.49c-1.51-.23-2.75-.85-2.75-1.39s2.06-4.56 4.59-8.94l4.59-7.95h11.5 11.51l-3.24 5.75c-1.79 3.16-4.31 7.44-5.61 9.5l-2.37 3.75-7.73-.15c-4.26-.08-8.98-.34-10.49-.57zm-29.48-1.2c-2.33-.39-4.44-.92-4.7-1.18-.26-.25 1.23-3.6 3.3-7.43l3.78-6.97 6.92-.78c3.81-.44 8.35-.66 10.09-.5l3.15.28-4.68 8.5-4.68 8.5-4.48.15c-2.46.08-6.37-.18-8.7-.57zm-129.47-4.24c-6.14-8.38-9.98-14.18-10.77-16.25-.67-1.77.35-4.67 4.81-13.62 3.11-6.25 6.09-11.35 6.62-11.32 1 .06 9.53 11.74 12.13 16.63 1.41 2.62 1.24 3.37-3.19 14-5.99 14.37-6.45 14.87-9.6 10.56zm106.45-.33c-1.79-.78-3.25-1.65-3.25-1.93 0-.29.99-2.56 2.2-5.05l2.2-4.53h6.76 6.76l-4.14 6.5c-2.28 3.58-4.85 6.48-5.71 6.46-.87-.02-3.03-.67-4.82-1.45zM438 472.3c-3.02-4.21-5.9-8.45-6.38-9.43-.65-1.3.56-5.06 4.44-13.83 2.93-6.62 5.63-12.04 5.99-12.04.84 0 13.95 17.76 13.95 18.9 0 1.57-11 24.1-11.75 24.08-.41-.02-3.23-3.47-6.25-7.68zm59 2.27c0-1.62 7.28-16.99 9.07-19.15 3.15-3.8 2.34-.4-2.29 9.58-4.74 10.2-6.78 13.09-6.78 9.57zm185-.65c-2.47-.93-9.22-2.95-15-4.47-5.78-1.53-10.67-2.91-10.87-3.07-.21-.16 1.78-3.96 4.4-8.44l4.78-8.15 3.95.64c6.86 1.09 25.83 7.65 26.39 9.11.3.77-1.64 4.71-4.3 8.74l-4.85 7.34-4.5-1.7zm-194-3.53c0-1.59 4.91-13.7 5.99-14.78 2-2 1.68.09-1.06 6.79-2.7 6.6-4.93 10.21-4.93 7.99zm146-8c-4.67-.68-11.29-1.27-14.69-1.31-3.41-.05-6.41-.44-6.68-.87-.27-.44 1.54-4.32 4.04-8.61l4.53-7.82 8.65.64c4.76.36 11.68 1.12 15.38 1.7l6.72 1.05-1.32 3.17c-1.16 2.74-3.49 6.61-7.13 11.85-.85 1.22-2.26 1.25-9.5.2zm-115.69-4.09c2.42-3.81 3.85-4.5 12.01-5.72l4.78-.72-2.57 5.07-2.56 5.07h-7-7l2.34-3.7zm23.69 3.16c0-.28 1.34-3.17 2.97-6.4 2.3-4.56 3.6-6.02 5.75-6.48 4.84-1.04 18.6-2.59 19.04-2.15.66.66-6.89 13.69-8.14 14.07-2.09.62-19.62 1.48-19.62.96zm34-1.08c0-.34 1.86-3.9 4.14-7.9l4.14-7.28 10.92-.71c6-.39 11.11-.51 11.37-.26.25.26-1.43 3.85-3.74 8l-4.2 7.54-5.07.6c-6.6.8-17.56.8-17.56.01zm-159.29-21.43c-3.69-5.45-6.72-10.25-6.73-10.68C409.95 426.79 420.3 404 421 404c1.16 0 13 18.72 13 20.55 0 1.91-8.82 23.22-9.88 23.88-.38.23-3.72-4.03-7.41-9.48zm17.04-37.27c-3.71-5.61-6.75-10.72-6.75-11.36 0-.99 10.64-25.3 11.41-26.07.34-.34 13.99 19.88 14.37 21.29.26.96-11.37 26.54-12 26.4-.16-.04-3.32-4.65-7.03-10.26zm17.86-38.71c-4.19-6.17-7.61-11.82-7.61-12.56 0-.75 1.19-3.95 2.64-7.13s4.34-9.81 6.42-14.75l3.78-8.96 7.54 15.79 7.55 15.79-5.58 10.67c-3.07 5.88-5.93 11.06-6.36 11.52-.42.46-4.19-4.21-8.38-10.37zm258.39 30c-4.12-1-10.04-2.32-13.15-2.94l-5.66-1.13 4.84-8.7 4.83-8.7 5.82.26c5.15.23 18.6 2.45 23.64 3.9 2.24.64 1.96 1.46-4.02 11.58-5.17 8.76-4.59 8.55-16.3 5.73zm-137.94-.86c-.58-1.09-1.06-2.7-1.06-3.58 0-1.91 3.86-9.76 5.22-10.64.52-.34 5.53-1.37 11.12-2.29 13.41-2.22 14.66-2.38 14.66-1.98 0 .29-6.98 15.02-7.71 16.26-.12.21-4.18 1.01-9.01 1.78s-9.54 1.63-10.47 1.91c-1.04.32-2.1-.24-2.75-1.46zm35.93-3.77c-.02-2.15 7.59-16.38 8.96-16.76.85-.23 7.06-.72 13.8-1.09 8.57-.46 12.25-.34 12.25.42 0 .6-1.87 4.43-4.15 8.51l-4.15 7.43-8.6.61c-4.73.34-10.74.87-13.35 1.17-2.61.31-4.75.18-4.76-.29zm53.26-1.09c-6.74-.17-12.23-.64-12.22-1.03.02-.4 1.94-4.32 4.25-8.72l4.22-8 14.33.16c7.88.09 14.56.4 14.85.69s-1.66 4.37-4.33 9.08c-3.76 6.63-5.3 8.51-6.85 8.35-1.1-.12-7.51-.35-14.25-.53zm-106.68-23.11c-3.61-7.21-6.57-13.56-6.57-14.12 0-.55 2.06-4.22 4.58-8.15s5.31-8.66 6.19-10.51 1.92-3.36 2.3-3.36c.39 0 2.63 3.71 4.98 8.25s5.35 9.97 6.67 12.07l2.39 3.81-6.16 11.69c-3.38 6.42-6.53 12.08-6.98 12.56-.46.48-3.78-5.02-7.4-12.24zm27.43.71c0-2.16 7.56-14.13 9.39-14.87 2.56-1.03 16.37-2.98 21.12-2.98h3.43l-3.41 6.65c-3.89 7.59-4.69 8.3-9.53 8.37-1.92.03-7.44.86-12.25 1.84-4.81.97-8.75 1.42-8.75.99zm149.5-1.46c-2.75-.76-9.05-1.89-14-2.51s-9.3-1.41-9.67-1.75c-.37-.35 1.11-3.67 3.29-7.38 3.89-6.61 4.06-6.75 8.12-6.75 6.72 0 27.19 2.2 28.1 3.02 1.1.99-7.7 16.44-9.47 16.62-.75.07-3.62-.49-6.37-1.25zM623 359.44c0-.27 1.58-3.63 3.51-7.46l3.52-6.98h4.33c2.38 0 8.47-.29 13.52-.65l9.19-.65-3.79 7.1-3.78 7.1-5 .51c-9.3.94-21.5 1.53-21.5 1.03zm41.02-2.16c.01-.43 1.73-3.7 3.82-7.28l3.8-6.5 14.22.12c7.82.07 14.48.38 14.8.7.31.32-.98 3.42-2.88 6.88l-3.46 6.3-15.16.28c-8.34.15-15.15-.08-15.14-.5zm-124.64-24.53l-6.02-11.44-4.35-8.19 6.57-10.56c3.61-5.81 6.87-10.56 7.24-10.55.38.01 3.27 5.06 6.43 11.23l5.75 11.22-5.45 9.02c-2.99 4.96-5.74 9.81-6.1 10.77-.98 2.59-2.2 2.14-4.07-1.5zm16.21-42.21c-6.03-11.3-6.6-13.98-3.73-17.66 1.02-1.31 3.57-5.53 5.67-9.38 3.46-6.37 5.07-8.47 6.47-8.47.28 0 3.13 5.09 6.35 11.31l5.85 11.31-3.47 5.43c-1.9 2.98-4.88 8.23-6.61 11.67s-3.55 6.25-4.05 6.25c-.49 0-3.41-4.71-6.48-10.46zm-39-1.91l-5.87-11.36 6.84-11.07 6.84-11.07 5.89 11.09c6.6 12.42 6.59 11.58.25 21.18-1.85 2.81-4.16 6.79-5.14 8.85-.97 2.06-2.03 3.75-2.35 3.75s-3.23-5.11-6.46-11.37zm22.05-33.2c-2.55-5.29-4.64-10.2-4.64-10.92 0-1.88 12.3-21.41 13.5-21.44 1.23-.04 9.5 15.29 9.5 17.59 0 1.38-8.12 16.03-12.53 22.61-1.03 1.53-1.8.5-5.83-7.84z" fill="#fefefe"/></svg>